<svg width="384" height="547" viewBox="0 0 384 547" fill="none" xmlns="http://www.w3.org/2000/svg">
<g opacity="0.2">
<path d="M273.405 389.289C272.836 389.114 272.179 389.464 272.004 390.033C271.96 390.165 271.96 390.252 271.96 390.383C271.96 390.865 272.267 391.302 272.748 391.434C272.836 391.477 272.967 391.477 273.055 391.477C273.537 391.477 273.975 391.171 274.106 390.69C274.15 390.558 274.15 390.471 274.15 390.383C274.194 389.902 273.887 389.464 273.405 389.289Z" fill="black"/>
<path d="M279.099 392.178C279.055 392.309 279.055 392.396 279.055 392.484C279.055 392.965 279.362 393.403 279.844 393.534C279.931 393.578 280.063 393.578 280.15 393.578C280.632 393.578 281.07 393.272 281.201 392.79C281.245 392.659 281.245 392.571 281.245 392.44C281.245 391.959 280.939 391.521 280.457 391.39C279.931 391.259 279.318 391.609 279.099 392.178Z" fill="black"/>
<path d="M252.118 382.9C251.549 382.725 250.892 383.075 250.717 383.644C250.673 383.775 250.673 383.863 250.673 383.994C250.673 384.475 250.979 384.913 251.461 385.044C251.593 385.088 251.68 385.088 251.812 385.088C252.293 385.088 252.731 384.781 252.863 384.3C252.907 384.169 252.907 384.081 252.907 383.994C252.907 383.512 252.6 383.075 252.118 382.9Z" fill="black"/>
<path d="M259.214 385.044C258.601 384.869 257.988 385.219 257.812 385.788C257.769 385.92 257.769 386.007 257.769 386.095C257.769 386.576 258.075 387.014 258.557 387.145C258.688 387.189 258.776 387.189 258.864 387.189C259.345 387.189 259.783 386.882 259.915 386.401C259.959 386.27 259.959 386.182 259.959 386.051C260.002 385.613 259.696 385.176 259.214 385.044Z" fill="black"/>
<path d="M237.927 378.656C237.358 378.481 236.701 378.831 236.569 379.4C236.394 379.968 236.744 380.625 237.314 380.8C237.401 380.844 237.533 380.844 237.62 380.844C238.102 380.844 238.54 380.537 238.672 380.056C238.847 379.443 238.54 378.831 237.927 378.656Z" fill="black"/>
<path d="M266.31 387.189C265.74 387.014 265.083 387.364 264.908 387.933C264.864 388.02 264.864 388.152 264.864 388.239C264.864 388.72 265.171 389.158 265.653 389.289C265.74 389.333 265.872 389.333 265.959 389.333C266.441 389.333 266.879 389.027 267.01 388.545C267.054 388.414 267.054 388.327 267.054 388.195C267.098 387.758 266.791 387.32 266.31 387.189Z" fill="black"/>
<path d="M245.023 380.799C244.453 380.624 243.796 380.974 243.621 381.543C243.577 381.631 243.577 381.762 243.577 381.849C243.577 382.331 243.884 382.768 244.366 382.9C244.453 382.943 244.585 382.943 244.672 382.943C245.154 382.943 245.592 382.637 245.723 382.156C245.767 382.025 245.767 381.937 245.767 381.806C245.811 381.368 245.504 380.93 245.023 380.799Z" fill="black"/>
<path d="M203.851 362.464C204.114 362.464 204.333 362.376 204.552 362.201C205.034 361.807 205.077 361.107 204.683 360.626L198.201 352.837C197.807 352.355 197.106 352.311 196.624 352.705C196.142 353.099 196.098 353.799 196.493 354.281L202.975 362.07C203.194 362.332 203.501 362.464 203.851 362.464Z" fill="black"/>
<path d="M168.767 344.742L142.838 347.717C142.224 347.805 141.786 348.33 141.874 348.943C141.918 349.511 142.4 349.905 142.969 349.905C143.013 349.905 143.057 349.905 143.1 349.905L169.03 346.93C169.643 346.842 170.081 346.317 169.994 345.704C169.95 345.092 169.38 344.654 168.767 344.742Z" fill="black"/>
<path d="M117.477 383.863C117.477 383.907 117.477 383.951 117.477 383.994C117.477 384.563 117.915 385.045 118.484 385.088C118.528 385.088 118.572 385.088 118.616 385.088C119.185 385.088 119.667 384.651 119.711 384.082C119.711 384.038 119.711 383.994 119.711 383.951C119.711 383.382 119.273 382.9 118.703 382.857C118.09 382.813 117.521 383.25 117.477 383.863Z" fill="black"/>
<path d="M116.732 391.215C116.732 391.258 116.732 391.302 116.732 391.346C116.732 391.915 117.17 392.396 117.74 392.44C117.784 392.44 117.827 392.44 117.871 392.44C118.441 392.44 118.922 392.002 118.966 391.433C118.966 391.39 118.966 391.346 118.966 391.302C118.966 390.733 118.528 390.252 117.959 390.208C117.346 390.164 116.82 390.602 116.732 391.215Z" fill="black"/>
<path d="M120.762 362.99C121.332 362.99 121.814 362.552 121.857 361.983C121.857 361.939 121.857 361.896 121.857 361.852C121.857 361.283 121.419 360.802 120.85 360.758C120.237 360.714 119.711 361.152 119.624 361.764C119.624 361.808 119.624 361.852 119.624 361.896C119.624 362.465 120.062 362.946 120.631 362.99C120.719 362.99 120.719 362.99 120.762 362.99Z" fill="black"/>
<path d="M118.922 369.116C118.922 369.16 118.922 369.203 118.922 369.247C118.922 369.816 119.36 370.297 119.93 370.341C119.974 370.341 120.017 370.341 120.061 370.341C120.631 370.341 121.112 369.904 121.156 369.335C121.156 369.291 121.156 369.247 121.156 369.203C121.156 368.635 120.718 368.153 120.149 368.109C119.536 368.066 119.01 368.503 118.922 369.116Z" fill="black"/>
<path d="M118.222 376.511C118.222 376.555 118.222 376.598 118.222 376.642C118.222 377.211 118.66 377.692 119.229 377.736C119.273 377.736 119.317 377.736 119.317 377.736C119.886 377.736 120.368 377.299 120.412 376.73C120.412 376.686 120.412 376.642 120.412 376.598C120.412 376.03 119.974 375.548 119.404 375.504C118.791 375.417 118.265 375.898 118.222 376.511Z" fill="black"/>
<path d="M115.287 405.962C115.2 406.574 115.681 407.099 116.295 407.187C116.338 407.187 116.382 407.187 116.426 407.187C116.995 407.187 117.477 406.749 117.521 406.18C117.565 405.568 117.127 405.043 116.514 404.955C115.9 404.911 115.375 405.349 115.287 405.962Z" fill="black"/>
<path d="M116.032 398.61C116.032 398.653 116.032 398.697 116.032 398.741C116.032 399.31 116.47 399.791 117.039 399.835C117.083 399.835 117.127 399.835 117.171 399.835C117.74 399.835 118.222 399.397 118.266 398.828C118.266 398.785 118.266 398.741 118.266 398.697C118.266 398.128 117.828 397.647 117.258 397.603C116.601 397.516 116.076 397.997 116.032 398.61Z" fill="black"/>
<path d="M30.8847 327.937C30.4905 327.5 29.7459 327.5 29.3079 327.894C29.0889 328.112 28.9575 328.375 28.9575 328.681C28.9575 328.988 29.0451 329.25 29.2641 329.469L39.3381 340.321C39.5571 340.54 39.8637 340.672 40.1703 340.672C40.4331 340.672 40.7397 340.584 40.9149 340.365C41.3529 339.928 41.3967 339.227 40.9587 338.79L30.8847 327.937Z" fill="black"/>
<path d="M61.1503 360.451C60.7561 360.013 60.0115 360.013 59.5735 360.407C59.3545 360.626 59.2231 360.889 59.2231 361.195C59.2231 361.501 59.3107 361.764 59.5297 361.983L79.7215 383.644C79.9405 383.863 80.2471 383.994 80.5537 383.994C80.8165 383.994 81.1231 383.906 81.2983 383.688C81.5173 383.469 81.6487 383.206 81.6487 382.9C81.6487 382.594 81.5611 382.331 81.3421 382.112L61.1503 360.451Z" fill="black"/>
<path d="M89.8834 392.877C89.4454 393.315 89.4016 394.015 89.8396 394.452C90.0586 394.671 90.3652 394.802 90.6718 394.802C90.9346 394.802 91.2413 394.715 91.4165 394.496C91.8545 394.058 91.8982 393.358 91.4602 392.921C91.0222 392.527 90.3214 392.483 89.8834 392.877Z" fill="black"/>
<path d="M49.4997 349.555C49.0617 349.992 49.0179 350.693 49.4559 351.13C49.6749 351.349 49.9377 351.48 50.2881 351.48C50.5509 351.48 50.8575 351.393 51.0327 351.174C51.4707 350.78 51.5145 350.036 51.0765 349.599C50.6385 349.161 49.9377 349.161 49.4997 349.555Z" fill="black"/>
<path d="M102.585 408.149C102.804 408.368 103.067 408.499 103.417 408.499C103.68 408.499 103.987 408.368 104.162 408.193C104.381 407.974 104.512 407.712 104.512 407.405C104.512 407.099 104.425 406.836 104.206 406.618L101.534 403.729C101.14 403.292 100.395 403.292 99.9572 403.686C99.5192 404.079 99.4754 404.823 99.9134 405.261L102.585 408.149Z" fill="black"/>
<path d="M21.0296 280.764L15.9488 301.463C15.8174 302.075 16.1678 302.644 16.781 302.819C16.8686 302.819 16.9562 302.863 17.0438 302.863C17.5256 302.863 18.0074 302.513 18.1388 302.032L23.2196 281.333C23.351 280.721 23.0006 280.152 22.3874 279.977C21.7742 279.802 21.2048 280.152 21.0296 280.764Z" fill="black"/>
<path d="M55.0183 253.983L35.6149 265.536C35.0893 265.842 34.9141 266.543 35.2207 267.068C35.4397 267.418 35.7901 267.593 36.1843 267.593C36.3595 267.593 36.5785 267.549 36.7537 267.418L56.1571 255.865C56.6827 255.559 56.8579 254.859 56.5513 254.334C56.2447 253.852 55.5439 253.677 55.0183 253.983Z" fill="black"/>
<path d="M73.6773 221.557C73.0641 221.557 72.5385 222.038 72.5385 222.651L72.3633 231.49C72.3633 232.103 72.8451 232.628 73.4583 232.628C74.0715 232.628 74.5533 232.147 74.5533 231.534L74.7285 222.694C74.7723 222.082 74.2905 221.6 73.6773 221.557Z" fill="black"/>
<path d="M130.617 156.048C130.793 156.048 130.968 156.005 131.099 155.917C131.493 155.698 131.712 155.305 131.712 154.911C131.712 154.736 131.669 154.604 131.581 154.429C131.318 153.86 130.661 153.642 130.092 153.904C129.698 154.079 129.479 154.517 129.479 154.911C129.479 155.086 129.522 155.217 129.61 155.392C129.829 155.83 130.223 156.048 130.617 156.048Z" fill="black"/>
<path d="M123.96 159.287C124.135 159.287 124.31 159.243 124.441 159.155C124.836 158.98 125.055 158.587 125.055 158.149C125.055 157.974 125.011 157.843 124.923 157.668C124.66 157.099 124.003 156.88 123.434 157.142C123.04 157.318 122.821 157.755 122.821 158.149C122.821 158.324 122.865 158.455 122.952 158.63C123.171 159.068 123.565 159.287 123.96 159.287Z" fill="black"/>
<path d="M117.302 162.525C117.477 162.525 117.652 162.481 117.784 162.394C118.178 162.219 118.397 161.781 118.397 161.387C118.397 161.212 118.353 161.081 118.266 160.906C118.003 160.337 117.346 160.118 116.776 160.381C116.382 160.556 116.163 160.95 116.163 161.387C116.163 161.562 116.207 161.694 116.294 161.869C116.513 162.306 116.908 162.525 117.302 162.525Z" fill="black"/>
<path d="M137.275 152.81C137.45 152.81 137.625 152.766 137.757 152.679C138.151 152.504 138.37 152.066 138.37 151.672C138.37 151.497 138.326 151.366 138.239 151.191C137.976 150.622 137.319 150.403 136.749 150.666C136.355 150.841 136.136 151.279 136.136 151.672C136.136 151.847 136.18 151.979 136.268 152.154C136.487 152.591 136.881 152.81 137.275 152.81Z" fill="black"/>
<path d="M150.59 146.334C150.765 146.334 150.94 146.29 151.072 146.202C151.641 145.94 151.86 145.283 151.597 144.714C151.335 144.146 150.677 143.927 150.108 144.189C149.539 144.452 149.32 145.108 149.583 145.677C149.802 146.071 150.196 146.334 150.59 146.334Z" fill="black"/>
<path d="M143.932 149.572C144.107 149.572 144.283 149.528 144.414 149.441C144.808 149.266 145.027 148.828 145.027 148.434C145.027 148.259 144.983 148.128 144.896 147.953C144.633 147.384 143.976 147.165 143.407 147.428C143.012 147.603 142.793 148.04 142.793 148.434C142.793 148.609 142.837 148.74 142.925 148.915C143.144 149.353 143.538 149.572 143.932 149.572Z" fill="black"/>
<path d="M258.294 55.4436L244.76 66.9962C244.278 67.3901 244.234 68.0902 244.628 68.5716C244.847 68.8341 245.154 68.9654 245.461 68.9654C245.723 68.9654 245.986 68.8779 246.161 68.7029L259.696 57.1502C260.177 56.7564 260.221 56.0562 259.827 55.5749C259.477 55.0935 258.776 55.0497 258.294 55.4436Z" fill="black"/>
<path d="M190.316 116.051C190.579 116.051 190.842 115.964 191.017 115.789L204.551 104.236C204.639 104.148 204.727 104.061 204.77 103.93C204.902 103.886 204.989 103.842 205.077 103.755L218.611 92.202C219.093 91.8081 219.137 91.108 218.743 90.6266C218.348 90.1453 217.648 90.1015 217.166 90.4953L203.632 102.048C203.544 102.135 203.456 102.223 203.413 102.354C203.281 102.398 203.194 102.442 203.106 102.529L189.572 114.082C189.09 114.476 189.046 115.176 189.44 115.657C189.659 115.92 189.966 116.051 190.316 116.051Z" fill="black"/>
<path d="M232.846 78.6364C232.452 78.155 231.751 78.1113 231.27 78.5051L230.7 78.9865C230.218 79.3803 230.175 80.0805 230.569 80.5618C230.788 80.8244 231.094 80.9557 231.401 80.9557C231.664 80.9557 231.927 80.8681 232.102 80.6931L232.671 80.2117C233.153 79.8179 233.241 79.1177 232.846 78.6364Z" fill="black"/>
<path d="M218.567 236.217C218.567 236.348 218.567 236.435 218.611 236.567C218.743 237.048 219.181 237.354 219.662 237.354C219.75 237.354 219.881 237.354 219.969 237.311C220.451 237.179 220.757 236.742 220.757 236.26C220.757 236.129 220.757 236.042 220.714 235.91C220.538 235.341 219.925 234.991 219.312 235.166C218.918 235.341 218.611 235.779 218.567 236.217Z" fill="black"/>
<path d="M198.113 241.599C197.631 241.73 197.325 242.168 197.325 242.649C197.325 242.737 197.325 242.868 197.368 242.956C197.5 243.437 197.938 243.743 198.42 243.743C198.551 243.743 198.639 243.743 198.726 243.699C199.208 243.568 199.515 243.131 199.515 242.649C199.515 242.518 199.515 242.43 199.471 242.299C199.296 241.73 198.683 241.424 198.113 241.599Z" fill="black"/>
<path d="M191.017 243.7C190.536 243.831 190.229 244.268 190.229 244.75C190.229 244.881 190.229 244.969 190.273 245.1C190.404 245.581 190.842 245.888 191.324 245.888C191.412 245.888 191.543 245.888 191.631 245.844C192.112 245.713 192.419 245.275 192.419 244.794C192.419 244.662 192.419 244.575 192.375 244.444C192.2 243.875 191.587 243.525 191.017 243.7Z" fill="black"/>
<path d="M184.228 248.032C184.316 248.032 184.447 248.032 184.535 247.988C185.104 247.813 185.455 247.201 185.279 246.588C185.104 246.019 184.491 245.669 183.878 245.844C183.308 246.019 182.958 246.632 183.133 247.244C183.308 247.726 183.746 248.032 184.228 248.032Z" fill="black"/>
<path d="M205.209 239.455C204.727 239.586 204.42 240.024 204.42 240.505C204.42 240.593 204.42 240.724 204.464 240.812C204.596 241.293 205.034 241.599 205.515 241.599C205.603 241.599 205.734 241.599 205.822 241.556C206.304 241.424 206.61 240.987 206.61 240.505C206.61 240.418 206.61 240.287 206.567 240.199C206.391 239.586 205.778 239.28 205.209 239.455Z" fill="black"/>
<path d="M212.261 237.311C211.779 237.442 211.472 237.88 211.472 238.361C211.472 238.492 211.472 238.58 211.516 238.711C211.647 239.192 212.085 239.499 212.567 239.499C212.699 239.499 212.786 239.499 212.874 239.455C213.356 239.324 213.662 238.886 213.662 238.405C213.662 238.273 213.662 238.186 213.618 238.098C213.487 237.486 212.874 237.136 212.261 237.311Z" fill="black"/>
<path d="M240.643 228.777C240.161 228.909 239.854 229.346 239.854 229.828C239.854 229.959 239.855 230.047 239.898 230.178C240.03 230.659 240.468 230.965 240.949 230.965C241.037 230.965 241.169 230.965 241.256 230.922C241.738 230.79 242.044 230.353 242.044 229.871C242.044 229.784 242.045 229.653 242.001 229.565C241.869 228.953 241.256 228.602 240.643 228.777Z" fill="black"/>
<path d="M226.802 235.21C226.889 235.21 227.021 235.21 227.108 235.166C227.59 235.035 227.897 234.597 227.897 234.116C227.897 233.985 227.897 233.897 227.853 233.766C227.678 233.197 227.065 232.847 226.451 233.022C225.97 233.153 225.663 233.591 225.663 234.072C225.663 234.203 225.663 234.291 225.707 234.378C225.882 234.904 226.32 235.21 226.802 235.21Z" fill="black"/>
<path d="M233.547 230.922C233.065 231.053 232.759 231.491 232.759 231.972C232.759 232.06 232.759 232.191 232.803 232.278C232.934 232.76 233.372 233.066 233.854 233.066C233.941 233.066 234.073 233.066 234.16 233.022C234.642 232.891 234.949 232.453 234.949 231.972C234.949 231.885 234.949 231.753 234.905 231.666C234.774 231.053 234.16 230.747 233.547 230.922Z" fill="black"/>
<path d="M109.111 212.586C108.63 212.279 107.885 212.411 107.578 212.892C107.228 213.417 107.359 214.074 107.885 214.424C108.06 214.555 108.279 214.599 108.498 214.599C108.892 214.599 109.243 214.424 109.418 214.074C109.593 213.811 109.637 213.548 109.593 213.242C109.506 213.023 109.33 212.761 109.111 212.586Z" fill="black"/>
<path d="M96.7162 204.447L84.3646 196.307C83.8828 196.001 83.1382 196.132 82.8316 196.614C82.6564 196.876 82.6126 197.139 82.6564 197.445C82.7002 197.751 82.8754 197.97 83.1382 198.145L95.4898 206.285C95.665 206.416 95.884 206.46 96.103 206.46C96.4534 206.46 96.8038 206.285 97.0228 205.935C97.3732 205.497 97.2418 204.797 96.7162 204.447Z" fill="black"/>
<path d="M120.237 222.607L138.414 234.553C138.589 234.685 138.808 234.729 139.027 234.729C139.377 234.729 139.728 234.553 139.947 234.203C140.122 233.941 140.166 233.678 140.122 233.372C140.078 233.066 139.903 232.847 139.64 232.672L121.463 220.725C120.981 220.419 120.237 220.55 119.93 221.032C119.58 221.557 119.755 222.257 120.237 222.607Z" fill="black"/>
<path d="M266.003 51.0679L270.296 82.8377C270.296 82.9252 270.339 83.0127 270.383 83.144C270.383 83.144 270.383 83.1878 270.427 83.1878C270.471 83.2753 270.515 83.3628 270.558 83.4066C270.558 83.4066 270.558 83.4066 270.558 83.4503C270.646 83.5378 270.69 83.5816 270.777 83.6254L270.821 83.6691C270.909 83.7129 270.996 83.7566 271.128 83.8004C271.215 83.8004 271.303 83.8442 271.347 83.8442C271.478 83.8442 271.566 83.8004 271.653 83.8004C271.697 83.8004 271.697 83.7566 271.741 83.7566C271.829 83.7129 271.872 83.6691 271.96 83.6254C272.004 83.6254 272.004 83.5816 272.048 83.5816C272.135 83.4941 272.223 83.4503 272.267 83.319L289.392 56.1878L321.191 51.8994C321.279 51.8994 321.41 51.8556 321.498 51.8118C321.498 51.8118 321.542 51.8118 321.542 51.7681C321.629 51.7243 321.717 51.6806 321.761 51.593C321.848 51.5055 321.892 51.4618 321.936 51.3742C321.936 51.3742 321.936 51.3305 321.98 51.3305C322.023 51.243 322.067 51.1554 322.111 51.0242C322.155 50.9366 322.155 50.8054 322.111 50.7178C322.111 50.6741 322.111 50.6741 322.111 50.6303C322.111 50.5428 322.067 50.4553 322.023 50.324C322.023 50.324 322.023 50.324 322.023 50.2802C321.98 50.1927 321.936 50.1052 321.892 50.0614L321.848 50.0177C321.804 49.9302 321.717 49.8864 321.629 49.8426L294.473 32.7325L290.181 0.96272C290.181 0.8752 290.137 0.78768 290.093 0.6564C290.093 0.6564 290.093 0.61264 290.049 0.61264C290.006 0.52512 289.962 0.4376 289.918 0.39384C289.918 0.39384 289.918 0.39384 289.918 0.35008C289.83 0.26256 289.787 0.2188 289.699 0.17504L289.655 0.13128C289.568 0.08752 289.48 0.04376 289.349 0C289.261 0 289.173 0 289.086 0C289.042 0 289.042 0 288.998 0C288.911 0 288.823 0.04376 288.735 0.08752C288.735 0.08752 288.692 0.08752 288.692 0.13128C288.604 0.17504 288.56 0.2188 288.473 0.26256L288.429 0.30632C288.341 0.35008 288.297 0.4376 288.254 0.52512L271.172 27.6563L239.285 31.9448C239.198 31.9448 239.11 31.9886 239.022 32.0323C238.979 32.0323 238.979 32.0761 238.935 32.0761C238.847 32.1198 238.803 32.1636 238.716 32.2074C238.716 32.2074 238.672 32.2074 238.672 32.2511C238.584 32.2949 238.541 32.3824 238.497 32.4699L238.453 32.5137C238.409 32.6012 238.365 32.6887 238.365 32.7762C238.322 32.8638 238.322 32.995 238.365 33.0826C238.365 33.1263 238.365 33.1263 238.365 33.1701C238.365 33.2576 238.409 33.3451 238.453 33.4764C238.453 33.4764 238.453 33.4764 238.453 33.5202C238.497 33.6077 238.541 33.6952 238.584 33.739L238.628 33.7827C238.672 33.8702 238.76 33.914 238.847 33.9578L266.003 51.0679ZM292.327 32.8638L281.946 39.5153L288.911 7.48296L292.327 32.8638ZM268.237 50.9804L278.618 44.2851L271.653 76.3174L268.237 50.9804ZM280.808 44.7665L287.509 55.1376L273.887 76.7988L280.808 44.7665ZM289.349 53.9561L282.647 43.585L314.709 50.5428L289.349 53.9561ZM283.129 41.397L293.51 34.7017L315.191 48.311L283.129 41.397ZM279.756 39.0777L273.055 28.7066L286.677 7.08912L279.756 39.0777ZM271.215 29.8881L277.917 40.2592L245.855 33.3014L271.215 29.8881ZM277.435 42.4472L267.054 49.1425L245.373 35.5331L277.435 42.4472Z" fill="black"/>
<path d="M24.7524 180.641C24.7524 180.773 24.7962 180.904 24.8838 180.991C24.8838 181.035 24.9276 181.079 24.9714 181.079C25.0152 181.166 25.059 181.21 25.1028 181.254C25.1466 181.298 25.1904 181.298 25.2342 181.341C25.278 181.385 25.3656 181.429 25.4094 181.473C25.4532 181.473 25.497 181.516 25.5408 181.516C25.5846 181.516 25.5846 181.56 25.6284 181.56L57.1644 187.643L72.7134 215.693C72.7134 215.693 72.7134 215.693 72.7572 215.737C72.801 215.824 72.8886 215.912 72.9762 215.956C73.02 215.999 73.02 215.999 73.0638 215.999C73.1514 216.043 73.1952 216.087 73.2828 216.131C73.3266 216.131 73.3266 216.174 73.3704 216.174C73.5018 216.218 73.5894 216.218 73.7208 216.218C73.7646 216.218 73.8522 216.218 73.896 216.218C73.9836 216.218 74.115 216.174 74.2026 216.131C74.2026 216.131 74.2464 216.131 74.2464 216.087C74.334 216.043 74.4216 215.999 74.5092 215.912C74.553 215.824 74.6406 215.781 74.6844 215.693C74.6844 215.693 74.6844 215.649 74.7282 215.649C74.772 215.562 74.8158 215.474 74.8158 215.387L80.904 183.88L108.98 168.345C109.067 168.301 109.155 168.213 109.199 168.17L109.243 168.126C109.286 168.038 109.374 167.995 109.418 167.907C109.418 167.907 109.418 167.907 109.418 167.863C109.462 167.776 109.505 167.688 109.505 167.601C109.505 167.557 109.505 167.557 109.505 167.513C109.505 167.426 109.505 167.294 109.505 167.207C109.505 167.119 109.462 166.988 109.418 166.901C109.418 166.901 109.418 166.857 109.374 166.857C109.33 166.769 109.286 166.682 109.199 166.638C109.199 166.638 109.199 166.638 109.155 166.638C109.111 166.594 109.024 166.507 108.936 166.463L108.892 166.419C108.805 166.375 108.717 166.332 108.629 166.332L77.0934 160.249L61.5444 132.199C61.5006 132.111 61.4568 132.024 61.3692 131.98L61.3254 131.936C61.2816 131.893 61.194 131.849 61.1064 131.805C61.1064 131.805 61.0626 131.805 61.0626 131.761C60.975 131.718 60.8874 131.674 60.7998 131.674C60.756 131.674 60.756 131.674 60.7122 131.674C60.6246 131.674 60.4932 131.674 60.4056 131.674C60.318 131.674 60.1866 131.718 60.099 131.761C60.099 131.761 60.0552 131.761 60.0552 131.805C59.9676 131.849 59.88 131.893 59.7924 131.98C59.7486 132.024 59.661 132.111 59.6172 132.199C59.6172 132.199 59.6172 132.243 59.5734 132.243C59.5296 132.33 59.4858 132.418 59.4858 132.505L53.3976 164.012L25.3218 179.547C25.2342 179.591 25.1466 179.679 25.1028 179.722L25.059 179.766C25.0152 179.854 24.9276 179.897 24.8838 179.985C24.8838 179.985 24.8838 179.985 24.8838 180.029C24.84 180.116 24.7962 180.204 24.7962 180.291C24.7962 180.335 24.7962 180.335 24.7962 180.379C24.7524 180.422 24.7524 180.554 24.7524 180.641ZM60.4494 139.069L65.6178 171.408L55.6314 164.144L60.4494 139.069ZM73.8084 208.735L68.64 176.397L78.6264 183.661L73.8084 208.735ZM32.286 180.554L64.6542 175.39L57.3834 185.367L32.286 180.554ZM66.45 176.747L71.6184 209.085L59.223 186.724L66.45 176.747ZM79.9404 181.823L69.954 174.602L102.322 169.439L79.9404 181.823ZM69.6036 172.371L76.8744 162.393L102.016 167.251L69.6036 172.371ZM67.8078 171.102L62.6394 138.763L75.0348 161.124L67.8078 171.102ZM54.3174 165.982L64.3038 173.246L31.9356 178.41L54.3174 165.982Z" fill="black"/>
<path d="M187.82 259.278C188.083 258.796 187.907 258.184 187.469 257.877C172.665 246.894 171.701 243.962 177.176 226.37C177.352 225.845 177.089 225.276 176.607 225.057C176.125 224.795 175.512 224.97 175.205 225.364C164.212 240.155 161.277 241.117 143.669 235.647C143.144 235.472 142.574 235.735 142.355 236.216C142.093 236.698 142.268 237.31 142.706 237.617C157.51 248.6 158.474 251.532 152.999 269.124C152.824 269.649 153.086 270.218 153.568 270.437C153.743 270.524 153.919 270.568 154.05 270.568C154.4 270.568 154.707 270.393 154.926 270.13C165.92 255.339 168.854 254.377 186.462 259.847C187.031 259.978 187.557 259.759 187.82 259.278ZM156.809 264.091C160.007 252.014 158.474 247.331 148.75 239.455C160.839 242.649 165.526 241.117 173.41 231.403C170.212 243.48 171.745 248.163 181.469 256.04C169.38 252.845 164.693 254.377 156.809 264.091Z" fill="black"/>
<path d="M145.904 340.059C146.385 339.796 146.561 339.228 146.385 338.702C146.166 338.177 145.641 337.915 145.115 338.002C127.42 341.678 124.661 340.453 115.375 324.962C115.112 324.48 114.543 324.305 114.017 324.48C113.492 324.655 113.229 325.224 113.316 325.749C116.952 343.428 115.769 346.185 100.264 355.462C99.7822 355.725 99.607 356.294 99.7822 356.819C100.001 357.344 100.527 357.607 101.052 357.519C118.748 353.887 121.507 355.069 130.793 370.56C131.012 370.91 131.362 371.085 131.756 371.085C131.888 371.085 132.019 371.041 132.15 370.997C132.676 370.822 132.939 370.253 132.851 369.728C129.172 352.093 130.398 349.292 145.904 340.059ZM129.566 364.389C124.354 356.513 120.5 353.581 113.404 353.581C111.389 353.581 109.068 353.8 106.44 354.237C116.601 347.542 118.529 343.122 116.601 331.132C123.303 341.284 127.727 343.21 139.728 341.284C129.566 347.98 127.639 352.399 129.566 364.389Z" fill="black"/>
<path d="M323.468 385.832C323.206 385.351 322.636 385.176 322.111 385.351C303.058 392.44 299.729 391.565 286.764 375.899C286.414 375.461 285.801 375.373 285.363 375.636C284.881 375.899 284.706 376.467 284.881 376.993C291.976 396.072 291.1 399.354 275.42 412.307C274.982 412.657 274.894 413.27 275.157 413.707C275.42 414.189 275.989 414.364 276.515 414.189C295.612 407.099 298.897 407.975 311.861 423.641C312.08 423.903 312.387 424.035 312.738 424.035C312.913 424.035 313.132 423.991 313.307 423.903C313.789 423.641 313.964 423.072 313.789 422.547C306.693 403.511 307.569 400.185 323.249 387.232C323.644 386.882 323.731 386.313 323.468 385.832ZM309.671 417.689C303.452 410.731 299.072 407.712 292.984 407.712C289.786 407.712 286.063 408.544 281.377 410.119C292.02 400.623 293.422 395.416 288.954 381.85C298.459 392.484 303.671 393.884 317.249 389.42C306.606 398.916 305.204 404.124 309.671 417.689Z" fill="black"/>
<path d="M10.9996 279.671C21.424 272.669 23.3074 272.713 33.3376 280.196C33.5566 280.327 33.7756 280.414 33.9946 280.414C34.2574 280.414 34.564 280.327 34.783 280.108C35.1772 279.714 35.221 279.145 34.9582 278.664C27.9502 268.249 27.994 266.368 35.4838 256.346C35.7904 255.909 35.7904 255.296 35.3962 254.902C35.002 254.509 34.4326 254.465 33.9508 254.727C23.5264 261.729 21.643 261.685 11.6128 254.202C11.1748 253.896 10.5616 253.896 10.1674 254.29C9.77321 254.684 9.72941 255.252 9.99221 255.734C17.0002 266.149 16.9564 268.03 9.46661 278.051C9.16001 278.489 9.16001 279.102 9.55421 279.496C9.94841 279.933 10.5616 279.977 10.9996 279.671ZM14.854 259.235C20.8108 263.042 24.3586 263.129 30.4906 259.628C26.68 265.58 26.5924 269.124 30.0964 275.251C27.0304 273.282 24.5776 272.319 22.1248 272.319C19.8034 272.319 17.4382 273.194 14.4598 274.857C18.3142 268.906 18.358 265.405 14.854 259.235Z" fill="black"/>
<path d="M231.27 376.862C220.188 370.954 219.356 369.291 221.283 356.863C221.371 356.338 221.064 355.813 220.539 355.638C220.013 355.463 219.444 355.682 219.225 356.163C213.312 367.234 211.647 368.066 199.208 366.184C198.683 366.097 198.157 366.403 197.982 366.928C197.807 367.453 198.026 368.022 198.507 368.241C209.589 374.149 210.421 375.811 208.494 388.239C208.406 388.764 208.713 389.289 209.238 389.464C209.37 389.508 209.457 389.508 209.589 389.508C209.983 389.508 210.377 389.289 210.552 388.939C216.465 377.868 218.13 377.037 230.569 378.962C231.095 379.05 231.62 378.743 231.795 378.218C231.971 377.693 231.752 377.124 231.27 376.862ZM211.385 383.076C211.954 376.03 210.377 372.879 204.377 369.116C211.428 369.685 214.582 368.11 218.349 362.114C217.779 369.16 219.356 372.311 225.357 376.074C218.305 375.505 215.195 377.08 211.385 383.076Z" fill="black"/>
<path d="M280.15 233.416C280.369 233.591 280.632 233.723 280.895 233.723C281.202 233.723 281.508 233.591 281.727 233.372C282.121 232.935 282.121 232.235 281.64 231.797L268.193 219.676L286.282 218.757C286.896 218.713 287.377 218.188 287.334 217.575C287.29 216.962 286.764 216.481 286.151 216.525L268.062 217.444L280.194 204.009C280.588 203.572 280.588 202.872 280.107 202.434C279.669 202.04 278.968 202.04 278.53 202.522L266.397 215.956L265.477 197.883C265.434 197.27 264.908 196.789 264.295 196.833C263.682 196.877 263.2 197.402 263.244 198.014L264.163 216.087L250.717 203.966C250.279 203.572 249.578 203.572 249.14 204.053C248.746 204.491 248.746 205.191 249.228 205.629L262.674 217.75L244.585 218.669C243.972 218.713 243.49 219.238 243.534 219.851C243.577 220.463 244.059 220.901 244.629 220.901H244.672L262.762 219.982L250.629 233.416C250.235 233.854 250.235 234.554 250.717 234.992C250.936 235.167 251.199 235.298 251.461 235.298C251.768 235.298 252.075 235.167 252.294 234.948L264.426 221.513L265.346 239.586C265.39 240.199 265.872 240.637 266.441 240.637H266.485C267.098 240.593 267.58 240.068 267.536 239.455L266.616 221.382L280.15 233.416Z" fill="black"/>
<path d="M153.262 129.486L164.124 132.462L154.313 138.019C153.787 138.326 153.612 138.982 153.919 139.551C154.138 139.901 154.488 140.12 154.882 140.12C155.058 140.12 155.277 140.076 155.452 139.988L165.263 134.431L162.285 145.283C162.109 145.896 162.46 146.465 163.073 146.64C163.161 146.684 163.292 146.684 163.38 146.684C163.861 146.684 164.299 146.377 164.431 145.852L167.409 135L172.972 144.802C173.191 145.152 173.541 145.371 173.935 145.371C174.111 145.371 174.33 145.327 174.505 145.24C175.03 144.933 175.206 144.277 174.899 143.708L169.336 133.906L180.199 136.881C180.286 136.925 180.418 136.925 180.505 136.925C180.987 136.925 181.425 136.619 181.557 136.094C181.732 135.481 181.381 134.912 180.768 134.737L169.906 131.762L179.717 126.204C180.243 125.898 180.418 125.241 180.111 124.672C179.805 124.147 179.148 123.972 178.578 124.279L168.767 129.836L171.745 118.984C171.921 118.371 171.57 117.802 170.957 117.627C170.344 117.452 169.774 117.802 169.599 118.415L166.621 129.267L161.058 119.465C160.752 118.94 160.095 118.765 159.525 119.071C159 119.377 158.824 120.034 159.131 120.603L164.694 130.405L153.831 127.429C153.262 127.254 152.649 127.604 152.473 128.217C152.342 128.742 152.692 129.355 153.262 129.486Z" fill="black"/>
<path d="M84.496 250.569L76.0426 247.769L84.0142 243.786C84.5836 243.524 84.8026 242.824 84.496 242.299C84.2332 241.73 83.5324 241.511 83.0068 241.817L75.0352 245.799L77.8384 237.354C78.0136 236.785 77.707 236.128 77.1376 235.953C76.5682 235.778 75.9112 236.085 75.736 236.654L72.9328 245.056L68.947 237.091C68.6842 236.522 68.0272 236.304 67.4578 236.61C66.8884 236.872 66.6694 237.573 66.976 238.098L70.9618 246.062L62.5084 243.261C61.939 243.086 61.282 243.393 61.1068 243.962C60.9316 244.53 61.2382 245.187 61.8076 245.362L70.261 248.162L62.2894 252.145C61.72 252.407 61.501 253.107 61.8076 253.632C61.9828 254.026 62.377 254.245 62.815 254.245C62.9902 254.245 63.1654 254.201 63.2968 254.114L71.2684 250.132L68.4652 258.577C68.29 259.146 68.5966 259.803 69.166 259.978C69.2974 260.021 69.385 260.021 69.5164 260.021C69.9982 260.021 70.4362 259.715 70.5676 259.278L73.3708 250.832L77.3566 258.796C77.5318 259.19 77.926 259.409 78.364 259.409C78.5392 259.409 78.7144 259.365 78.8458 259.278C79.4152 259.015 79.6342 258.315 79.3276 257.79L75.3418 249.825L83.7952 252.626C83.9266 252.67 84.0142 252.67 84.1456 252.67C84.6274 252.67 85.0654 252.363 85.1968 251.926C85.4158 251.357 85.1092 250.744 84.496 250.569Z" fill="black"/>
<path d="M188.39 343.91L196.843 346.711C196.974 346.755 197.062 346.755 197.193 346.755C197.675 346.755 198.113 346.448 198.245 346.011C198.42 345.442 198.113 344.785 197.544 344.61L189.09 341.81L197.062 337.827C197.631 337.565 197.85 336.865 197.544 336.34C197.281 335.771 196.58 335.552 196.055 335.858L188.083 339.84L190.886 331.395C191.061 330.826 190.755 330.169 190.185 329.994C189.616 329.819 188.959 330.126 188.784 330.695L185.981 339.14L181.995 331.176C181.732 330.607 181.075 330.388 180.506 330.695C179.936 330.957 179.717 331.657 180.024 332.182L184.01 340.147L175.556 337.346C174.987 337.171 174.33 337.477 174.155 338.046C173.979 338.615 174.286 339.272 174.855 339.447L183.309 342.247L175.337 346.229C174.768 346.492 174.549 347.192 174.855 347.717C175.031 348.111 175.425 348.33 175.863 348.33C176.038 348.33 176.213 348.286 176.345 348.199L184.316 344.216L181.513 352.662C181.338 353.231 181.644 353.887 182.214 354.062C182.345 354.106 182.433 354.106 182.564 354.106C183.046 354.106 183.484 353.8 183.615 353.362L186.419 344.917L190.404 352.881C190.58 353.275 190.974 353.494 191.412 353.494C191.587 353.494 191.762 353.45 191.894 353.362C192.463 353.1 192.682 352.4 192.375 351.874L188.39 343.91Z" fill="black"/>
<path d="M20.6792 320.061L29.1326 322.861C29.264 322.905 29.3516 322.905 29.483 322.905C29.9648 322.905 30.4028 322.599 30.5342 322.161C30.7094 321.592 30.4028 320.936 29.8334 320.761L21.38 317.96L29.3516 313.978C29.921 313.715 30.14 313.015 29.8334 312.49C29.5706 311.921 28.9136 311.702 28.3442 312.009L20.3726 315.991L23.1758 307.545C23.351 306.976 23.0444 306.32 22.475 306.145C21.9056 305.97 21.2486 306.276 21.0734 306.845L18.2702 315.291L14.2844 307.326C14.0216 306.758 13.3646 306.539 12.7952 306.845C12.2258 307.108 12.0068 307.808 12.3134 308.333L16.2992 316.297L7.84581 313.497C7.27641 313.321 6.61941 313.628 6.44421 314.197C6.26901 314.766 6.57561 315.422 7.14501 315.597L15.5984 318.398L7.6268 322.38C7.0574 322.642 6.83841 323.343 7.14501 323.868C7.32021 324.261 7.7144 324.48 8.1524 324.48C8.3276 324.48 8.50281 324.437 8.63421 324.349L16.6058 320.367L13.8026 328.813C13.6274 329.381 13.934 330.038 14.5034 330.213C14.6348 330.257 14.7224 330.257 14.8538 330.257C15.3356 330.257 15.7736 329.95 15.905 329.513L18.7082 321.067L22.694 329.031C22.8692 329.425 23.2634 329.644 23.7014 329.644C23.8766 329.644 24.0518 329.6 24.1832 329.513C24.7526 329.25 24.9716 328.55 24.665 328.025L20.6792 320.061Z" fill="black"/>
<path d="M130.53 414.495L117.477 418.959L123.565 406.575C123.828 406.006 123.609 405.349 123.04 405.087C122.47 404.824 121.813 405.043 121.551 405.612L115.462 417.996L110.995 404.955C110.776 404.386 110.163 404.08 109.593 404.255C109.024 404.474 108.717 405.087 108.892 405.656L113.36 418.696L100.965 412.613C100.395 412.351 99.7383 412.57 99.4755 413.139C99.2127 413.707 99.4317 414.364 100.001 414.626L112.396 420.709L99.3003 425.173C98.7309 425.391 98.4243 426.004 98.5995 426.573C98.7747 427.054 99.1689 427.317 99.6507 427.317C99.7821 427.317 99.8697 427.317 100.001 427.273L113.053 422.809L106.965 435.194C106.702 435.762 106.921 436.419 107.491 436.681C107.666 436.769 107.797 436.813 107.973 436.813C108.367 436.813 108.761 436.594 108.98 436.2L115.068 423.816L119.536 436.856C119.711 437.338 120.105 437.6 120.587 437.6C120.718 437.6 120.806 437.6 120.937 437.557C121.507 437.338 121.813 436.725 121.638 436.156L117.171 423.116L129.566 429.198C129.741 429.286 129.873 429.33 130.048 429.33C130.442 429.33 130.836 429.111 131.055 428.717C131.318 428.148 131.099 427.492 130.53 427.229L118.134 421.147L131.187 416.683C131.756 416.464 132.063 415.852 131.887 415.283C131.756 414.626 131.099 414.32 130.53 414.495Z" fill="black"/>
</g>
</svg>
