<svg width="582" height="753" viewBox="0 0 582 753" fill="none" xmlns="http://www.w3.org/2000/svg">
<g opacity="0.2" clip-path="url(#clip0_12_2307)">
<path d="M425.021 92.2721C425.241 92.483 425.523 92.6545 425.828 92.7243C426.337 92.8406 426.853 92.6907 427.252 92.3533L440.651 79.8831C441.221 79.2635 441.277 78.3124 440.669 77.6916C440.061 77.0707 439.11 77.0141 438.489 77.6221L425.091 90.0923C424.481 90.6493 424.413 91.6513 425.021 92.2721Z" fill="black"/>
<path d="M460.022 227.888C460.241 228.099 460.524 228.271 460.829 228.34C461.338 228.457 461.854 228.307 462.253 227.969L479.381 212.067C480.002 211.459 480.058 210.508 479.45 209.887C478.842 209.266 477.891 209.209 477.271 209.817L460.142 225.72C459.47 226.316 459.414 227.267 460.022 227.888Z" fill="black"/>
<path d="M534.721 276.228C534.94 276.439 535.222 276.611 535.528 276.681C536.037 276.797 536.553 276.647 536.951 276.31L577.211 238.86C577.831 238.252 577.888 237.301 577.28 236.68C576.672 236.059 575.721 236.002 575.1 236.61L534.841 274.06C534.169 274.657 534.113 275.608 534.721 276.228Z" fill="black"/>
<path d="M524.931 287.434C525.552 286.826 525.609 285.875 525.001 285.254C524.393 284.633 523.442 284.576 522.821 285.184L321.85 472.186C336.994 449.029 342.25 421.096 337.327 394.586L543.195 203.026C543.816 202.418 543.872 201.467 543.264 200.846C542.656 200.225 541.705 200.169 541.085 200.777L336.645 391.003C334.064 379.328 329.527 368.009 322.968 357.567L446.804 242.381C447.424 241.773 447.481 240.822 446.873 240.201C446.265 239.581 445.314 239.524 444.693 240.132L321.217 354.918C318.096 350.295 314.611 345.857 310.7 341.644C307.268 337.914 303.59 334.557 299.751 331.431L365.641 270.166C366.262 269.558 366.318 268.607 365.71 267.986C365.102 267.365 364.151 267.309 363.53 267.917L297.294 329.53C288.172 322.573 278.134 317.281 267.662 313.657L409.059 182.079C409.68 181.471 409.736 180.52 409.128 179.899C408.52 179.278 407.569 179.221 406.948 179.829L264.282 312.51C237.007 304.138 206.92 306.905 181.335 321.144L402.766 115.144C403.387 114.536 403.444 113.585 402.836 112.964C402.228 112.343 401.277 112.287 400.656 112.894L160.581 336.272C139.774 355.618 127.783 381.852 126.766 410.218C125.749 438.584 135.851 465.634 155.147 486.43C169.806 502.203 188.516 512.903 209.079 517.601C215.594 519.089 222.299 519.978 229.156 520.205C257.522 521.222 284.572 511.121 305.367 491.825L524.931 287.434ZM229.22 517.114C201.703 516.13 176.198 504.466 157.408 484.268C118.664 442.643 121.027 377.203 162.652 338.458C182.85 319.669 209.071 309.913 236.639 310.909C243.28 311.14 249.782 311.983 256.145 313.436C258.842 314.053 261.517 314.771 264.105 315.63C264.207 315.653 264.297 315.727 264.348 315.739L264.399 315.75C281.074 321.059 296.188 330.617 308.4 343.742C347.144 385.368 344.781 450.808 303.155 489.552C283.02 508.303 256.736 518.097 229.22 517.114Z" fill="black"/>
<path d="M256.084 363.872C269.42 366.918 281.075 363.957 282.645 357.086C284.214 350.215 275.001 342.487 261.665 339.44C248.33 336.394 236.675 339.355 235.105 346.226C233.535 353.098 242.8 360.837 256.084 363.872ZM260.979 342.443C273.399 345.28 280.614 351.909 279.591 356.388C278.579 360.817 269.139 363.694 256.77 360.869C244.402 358.044 237.136 351.403 238.159 346.924C239.182 342.445 248.611 339.618 260.979 342.443Z" fill="black"/>
<path d="M149.541 402.889C149.937 403.033 150.332 403.177 150.739 403.27C153.742 403.956 157.238 402.72 160.761 399.722C164.433 396.544 167.791 391.688 170.146 386.067C175.281 373.905 174.296 362.273 167.845 359.568C161.445 356.874 152.425 364.239 147.291 376.401C144.936 382.022 143.774 387.809 144.063 392.641C144.31 397.892 146.27 401.5 149.541 402.889ZM150.076 377.573C154.607 366.88 161.685 361.213 165.961 362.19C166.164 362.236 166.419 362.294 166.611 362.392C170.763 364.144 171.981 373.58 167.22 384.81C165.021 389.984 161.97 394.429 158.686 397.32C155.686 399.902 152.781 400.898 150.736 400.003C148.68 399.158 147.331 396.386 147.111 392.427C146.82 388.076 147.915 382.81 150.076 377.573Z" fill="black"/>
<path d="M253.804 461.303C242.505 458.722 231.188 465.83 228.606 477.129C226.025 488.429 233.133 499.746 244.433 502.327C255.733 504.908 267.05 497.8 269.631 486.501C272.212 475.201 265.104 463.884 253.804 461.303ZM245.131 499.273C235.511 497.076 229.463 487.447 231.66 477.827C233.858 468.207 243.487 462.159 253.107 464.357C262.727 466.554 268.774 476.183 266.577 485.803C264.379 495.423 254.751 501.471 245.131 499.273Z" fill="black"/>
<path d="M303.048 406.089C295.108 404.275 287.167 409.263 285.353 417.203C283.539 425.143 288.527 433.084 296.467 434.898C304.407 436.712 312.348 431.724 314.162 423.784C315.976 415.844 310.988 407.903 303.048 406.089ZM297.153 431.895C290.893 430.465 286.914 424.201 288.356 417.889C289.786 411.629 296.051 407.651 302.362 409.092C308.623 410.522 312.601 416.787 311.159 423.098C309.729 429.359 303.465 433.337 297.153 431.895Z" fill="black"/>
<path d="M242.017 420.532C243.796 412.745 238.926 404.992 231.139 403.213C223.351 401.434 215.598 406.304 213.819 414.091C212.04 421.879 216.91 429.632 224.697 431.411C232.496 433.139 240.25 428.269 242.017 420.532ZM225.395 428.357C219.287 426.962 215.478 420.897 216.873 414.789C218.268 408.681 224.333 404.872 230.441 406.267C236.549 407.662 240.358 413.727 238.963 419.835C237.63 425.903 231.503 429.752 225.395 428.357Z" fill="black"/>
<path d="M170.121 448.774C164.828 447.564 159.513 450.903 158.304 456.196C157.095 461.49 160.433 466.804 165.726 468.013C171.02 469.223 176.335 465.884 177.544 460.591C178.753 455.298 175.415 449.983 170.121 448.774ZM166.424 464.959C162.81 464.134 160.532 460.507 161.358 456.894C162.183 453.28 165.81 451.002 169.424 451.828C173.038 452.653 175.315 456.28 174.49 459.893C173.664 463.507 170.038 465.785 166.424 464.959Z" fill="black"/>
<path d="M173.263 355.074C173.416 355.109 177.43 356.294 179.838 360.754C182.337 365.287 182.34 371.607 179.864 379.397C179.627 380.199 180.064 381.102 180.866 381.339C180.917 381.351 180.968 381.363 180.968 381.363C181.732 381.537 182.533 381.077 182.809 380.337C185.545 371.643 185.4 364.541 182.492 359.218C179.388 353.581 174.255 352.141 174 352.083C173.197 351.846 172.334 352.345 172.097 353.148C171.962 353.974 172.46 354.837 173.263 355.074Z" fill="black"/>
<path d="M170.301 401.098C169.608 400.618 168.649 400.827 168.169 401.521C158.153 416.531 145.55 408.404 144.998 408.01C144.304 407.53 143.346 407.74 142.866 408.433C142.386 409.127 142.595 410.085 143.289 410.565C143.43 410.651 145.895 412.285 149.56 413.122C151.749 413.622 154.375 413.847 157.238 413.27C162.46 412.213 167.027 408.865 170.787 403.19C171.205 402.536 171.058 401.538 170.301 401.098Z" fill="black"/>
<path d="M238.611 455.368C239.433 455.288 240.089 454.527 240.02 453.655C239.952 452.782 239.18 452.177 238.307 452.246C238.092 452.25 218.28 454.58 217.84 482.06C217.83 482.807 218.325 483.456 219.037 483.619C219.139 483.642 219.241 483.665 219.354 483.638C220.204 483.671 220.899 482.973 220.932 482.123C221.292 457.571 237.841 455.46 238.611 455.368Z" fill="black"/>
<path d="M277.276 468.271C276.51 468.577 276.085 469.498 276.443 470.276C276.522 470.401 282.106 484.637 273.246 494.824C272.676 495.443 272.772 496.429 273.391 496.999C273.572 497.147 273.803 497.307 274.057 497.365C274.617 497.493 275.196 497.304 275.567 496.853C285.727 485.196 279.561 469.756 279.281 469.104C278.986 468.286 278.054 467.913 277.276 468.271Z" fill="black"/>
<path d="M265.84 370.867C265.83 371.614 266.324 372.263 267.037 372.425C267.139 372.449 267.241 372.472 267.354 372.444C268.152 372.466 286.675 372.734 290.522 360.813C290.759 360.011 290.323 359.108 289.52 358.871C288.717 358.634 287.814 359.07 287.577 359.873C284.394 369.589 267.582 369.337 267.418 369.353C266.557 369.37 265.873 370.017 265.84 370.867Z" fill="black"/>
<path d="M229.845 358.467C230.092 358.791 230.374 358.963 230.731 359.044C231.138 359.137 231.643 359.038 232.018 358.803C232.729 358.269 232.836 357.33 232.353 356.63C228.825 351.915 227.457 347.586 228.329 343.768C229.492 338.678 234.327 336.034 234.378 336.045C235.116 335.625 235.428 334.732 235.019 333.943C234.61 333.153 233.705 332.893 232.916 333.302C232.677 333.408 226.764 336.555 225.275 343.071C224.155 347.742 225.693 352.966 229.845 358.467Z" fill="black"/>
<path d="M173.176 440.796C172.35 440.661 171.525 441.222 171.39 442.048C171.255 442.874 171.766 443.687 172.643 443.834C173.05 443.927 182.74 445.819 182.633 456.131C182.623 456.878 183.129 457.476 183.842 457.639C183.944 457.662 184.046 457.685 184.159 457.658C185.02 457.64 185.703 456.993 185.737 456.144C185.853 443.21 173.278 440.819 173.176 440.796Z" fill="black"/>
<path d="M321.147 416.65C321.3 416.685 321.452 416.72 321.617 416.704C322.489 416.636 323.133 415.926 323.065 415.053C322.147 401.723 310.679 398.942 310.577 398.919C309.762 398.733 308.899 399.232 308.701 400.097C308.515 400.912 309.014 401.775 309.879 401.973C310.286 402.066 319.249 404.328 319.966 415.256C320.018 415.964 320.536 416.511 321.147 416.65Z" fill="black"/>
<path d="M300.256 442.459C281.422 442.387 279.894 427.739 279.818 427.133C279.75 426.26 278.978 425.655 278.156 425.735C277.284 425.804 276.679 426.576 276.759 427.398C276.775 427.562 278.12 441.365 293.136 444.795C295.222 445.272 297.571 445.54 300.244 445.562C301.105 445.544 301.788 444.897 301.771 444.036C301.815 443.136 301.117 442.441 300.256 442.459Z" fill="black"/>
<path d="M128.378 339.626C127.048 341.465 125.819 343.326 124.579 345.239C124.099 345.932 124.36 346.902 125.053 347.382C125.194 347.468 125.386 347.565 125.539 347.6C126.15 347.74 126.854 347.472 127.197 346.908C128.374 345.035 129.591 343.224 130.91 341.437C131.39 340.743 131.243 339.745 130.549 339.265C129.816 338.723 128.858 338.933 128.378 339.626Z" fill="black"/>
<path d="M109.767 384.057C110.582 384.243 111.395 383.733 111.631 382.93C113.342 376.144 115.675 369.447 118.533 363.031C118.872 362.252 118.549 361.321 117.77 360.982C116.99 360.643 116.06 360.966 115.721 361.746C112.777 368.303 110.409 375.153 108.652 382.142C108.403 382.996 108.914 383.809 109.767 384.057Z" fill="black"/>
<path d="M233.699 539.237C198.734 539.444 165.051 524.895 141.225 499.316C115.986 472.182 104.106 435.568 108.599 398.785C108.683 397.947 108.11 397.174 107.222 397.078C106.384 396.993 105.61 397.566 105.515 398.455C100.914 436.178 113.066 473.711 138.964 501.477C156.588 520.445 179.537 533.452 204.427 539.138C213.945 541.312 223.758 542.429 233.686 542.34C234.547 542.323 235.242 541.625 235.224 540.764C235.258 539.915 234.56 539.22 233.699 539.237Z" fill="black"/>
<path d="M269.833 533.675C264.183 535.437 258.308 536.773 252.475 537.69C251.642 537.821 251.037 538.593 251.156 539.477C251.271 540.146 251.75 540.63 252.361 540.77C252.564 540.816 252.729 540.8 252.944 540.796C258.941 539.863 264.941 538.449 270.756 536.671C271.561 536.426 272.025 535.568 271.792 534.712C271.548 533.906 270.69 533.442 269.833 533.675Z" fill="black"/>
<path d="M295.957 522.237C293.417 523.745 290.798 525.128 288.14 526.449C287.362 526.807 287.039 527.751 287.448 528.54C287.672 528.966 288.032 529.263 288.49 529.368C288.847 529.449 289.175 529.417 289.539 529.232C292.248 527.923 294.941 526.45 297.544 524.902C298.282 524.482 298.554 523.526 298.083 522.776C297.663 522.037 296.695 521.816 295.957 522.237Z" fill="black"/>
<path d="M517.484 447.575C499.059 443.366 480.614 454.952 476.405 473.377C472.196 491.802 483.781 510.248 502.206 514.456C520.632 518.665 539.077 507.08 543.286 488.655C547.506 470.178 535.909 451.784 517.484 447.575ZM502.892 511.453C486.096 507.617 475.571 490.86 479.408 474.063C483.245 457.266 500.001 446.742 516.798 450.578C533.595 454.415 544.12 471.172 540.283 487.969C536.458 504.714 519.689 515.29 502.892 511.453Z" fill="black"/>
<path d="M190.426 143.491C195.089 123.08 182.286 102.697 161.876 98.0347C154.139 96.2674 146.416 97.0203 139.53 99.7319C139.417 99.7595 139.354 99.7988 139.241 99.8264C139.19 99.8148 139.179 99.8657 139.128 99.8541C132.934 102.349 127.485 106.513 123.376 111.84C123.313 111.88 123.29 111.981 123.227 112.021C120.02 116.215 117.663 121.139 116.419 126.586C115.722 129.639 115.404 132.673 115.465 135.686C115.454 135.737 115.454 135.737 115.442 135.788C115.789 152.79 127.614 168.077 144.919 172.03C165.381 176.704 185.764 163.901 190.426 143.491ZM145.668 168.988C131.263 165.697 121.004 153.875 118.95 140.124C123.335 144.607 132.188 152.038 144.098 154.759C144.505 154.852 144.913 154.945 145.32 155.038C146.134 155.224 146.959 154.662 147.156 153.797C147.342 152.983 146.73 152.146 145.916 151.96C130.847 149 120.541 137.381 118.606 135.065C118.604 132.494 118.88 129.879 119.485 127.232C120.427 123.109 122.035 119.353 124.246 116.002C125.943 119.121 129.708 124.212 137.671 127.798C137.773 127.822 137.863 127.896 137.965 127.919C138.678 128.082 139.405 127.712 139.72 127.035C140.059 126.255 139.736 125.324 138.956 124.986C130.264 121.072 127.207 115.233 126.329 113.211C129.838 108.871 134.252 105.488 139.323 103.219C141.388 106.369 148.215 114.462 165.422 119.785C165.473 119.796 165.473 119.796 165.524 119.808C166.288 119.983 167.089 119.523 167.377 118.732C167.614 117.929 167.177 117.026 166.375 116.789C151.016 112.049 144.528 105.051 142.326 102.031C148.25 100.01 154.776 99.5728 161.291 101.061C180.022 105.34 191.765 124.035 187.486 142.766C183.207 161.496 164.399 173.266 145.668 168.988Z" fill="black"/>
<path d="M401.612 504.224C401.978 503.558 401.847 502.724 401.255 502.268C400.675 501.76 399.814 501.778 399.267 502.296C385.436 514.078 382.756 514.323 367.067 505.169C366.401 504.803 365.568 504.934 365.111 505.526C364.604 506.106 364.621 506.967 365.139 507.514C376.921 521.345 377.166 524.025 368.012 539.714C367.646 540.38 367.777 541.213 368.369 541.67C368.549 541.818 368.792 541.927 368.996 541.974C369.454 542.078 369.959 541.979 370.357 541.642C384.188 529.859 386.868 529.615 402.557 538.768C403.223 539.135 404.056 539.004 404.513 538.412C405.02 537.832 405.003 536.971 404.485 536.424C392.703 522.593 392.47 519.862 401.612 504.224ZM374.438 534.327C379.035 524.987 378.589 519.905 372.415 511.532C381.755 516.129 386.837 515.683 395.209 509.509C390.612 518.849 391.058 523.931 397.232 532.304C387.893 527.707 382.81 528.152 374.438 534.327Z" fill="black"/>
<path d="M265.849 80.8155C287.603 88.0341 289.845 91.1167 290.224 114.071C290.226 114.768 290.721 115.416 291.433 115.579C291.484 115.591 291.484 115.591 291.535 115.602C292.259 115.714 292.998 115.294 293.223 114.542C300.442 92.7877 303.524 90.5463 326.479 90.1666C327.226 90.1766 327.898 89.5803 328.01 88.8561C328.122 88.1319 327.702 87.3932 326.95 87.1679C305.195 79.9493 302.954 76.8666 302.574 53.912C302.584 53.1645 301.988 52.4928 301.264 52.3809C300.54 52.269 299.801 52.6894 299.576 53.4412C292.357 75.1957 289.274 77.4371 266.32 77.8168C265.572 77.8067 264.9 78.403 264.789 79.1273C264.677 79.8515 265.16 80.5509 265.849 80.8155ZM299.751 62.0501C300.723 76.7855 304.527 81.9387 318.29 87.332C303.555 88.3039 298.401 92.1074 293.008 105.871C292.036 91.1354 288.233 85.9821 274.469 80.5889C289.216 79.566 294.358 75.8135 299.751 62.0501Z" fill="black"/>
<path d="M593.742 376.79C573.592 364.422 572.023 360.743 577.086 337.639C577.249 336.927 576.84 336.137 576.151 335.873C575.461 335.608 574.656 335.852 574.238 336.507C561.87 356.657 558.191 358.226 535.087 353.163C534.375 353 533.585 353.409 533.321 354.098C533.056 354.787 533.301 355.593 533.955 356.01C554.105 368.379 555.674 372.057 550.611 395.161C550.448 395.874 550.857 396.663 551.546 396.928C551.648 396.951 551.699 396.963 551.801 396.986C552.463 397.137 553.115 396.858 553.459 396.294C565.827 376.144 569.506 374.574 592.609 379.638C593.322 379.8 594.112 379.392 594.376 378.702C594.652 377.962 594.408 377.157 593.742 376.79ZM555.248 387.759C557.835 372.444 555.322 366.568 542.49 357.799C557.805 360.387 563.681 357.874 572.449 345.042C569.862 360.356 572.375 366.233 585.207 375.001C569.892 372.413 563.977 374.864 555.248 387.759Z" fill="black"/>
<path d="M168.745 227.385C161.341 239.404 159.433 240.253 145.616 237.204C144.903 237.041 144.114 237.45 143.849 238.14C143.585 238.829 143.829 239.634 144.483 240.052C156.502 247.456 157.352 249.364 154.302 263.181C154.14 263.894 154.548 264.683 155.238 264.948C155.34 264.971 155.39 264.983 155.492 265.006C156.154 265.157 156.807 264.878 157.15 264.313C164.555 252.295 166.462 251.445 180.279 254.494C180.992 254.657 181.781 254.248 182.046 253.559C182.311 252.87 182.066 252.064 181.412 251.647C169.393 244.242 168.544 242.334 171.593 228.518C171.755 227.805 171.347 227.015 170.657 226.751C169.917 226.475 169.162 226.731 168.745 227.385ZM173.566 250.123C166.571 249.328 162.955 250.858 158.674 256.468C159.469 249.473 157.939 245.857 152.329 241.576C159.324 242.371 162.94 240.84 167.221 235.231C166.426 242.226 167.957 245.842 173.566 250.123Z" fill="black"/>
</g>
<defs>
<clipPath id="clip0_12_2307">
<rect width="522.1" height="652.625" fill="white" transform="translate(145.335) rotate(12.8673)"/>
</clipPath>
</defs>
</svg>
