<svg width="636" height="795" viewBox="0 0 636 795" fill="none" xmlns="http://www.w3.org/2000/svg">
<g opacity="0.2">
<path d="M590.971 618.955C590.717 618.574 590.399 618.192 590.144 617.874C584.229 611.26 578.442 606.172 572.336 602.228C565.531 597.776 557.772 594.596 550.013 593.07C543.017 591.671 535.512 591.289 526.989 591.989C521.202 592.434 515.541 593.324 510.072 594.215C509.499 592.816 508.863 591.48 508.164 590.208C506.447 587.219 504.666 584.738 502.758 582.576C498.497 577.87 493.154 574.181 487.303 571.955C484.059 570.683 481.007 569.92 478.081 569.538C474.837 569.093 471.657 568.966 468.541 569.284C463.771 569.729 458.874 571.064 454.422 573.163C451.242 571.446 448.062 569.983 444.945 568.902C440.239 567.248 435.342 566.167 430.445 565.722C425.611 565.277 420.714 565.34 415.817 565.976C413.463 566.294 411.047 566.74 408.693 567.376C407.676 567.63 406.785 567.884 405.959 568.139C403.796 563.051 400.68 558.408 396.864 554.783C391.712 549.822 385.352 546.388 378.611 544.798C371.742 543.08 364.428 543.271 357.432 545.306C355.206 545.942 353.043 546.833 350.881 547.914L352.535 459.892C352.535 459.828 352.535 459.828 352.535 459.764V440.748H369.516H394.892H410.729C411.619 440.748 412.319 440.048 412.319 439.158V413.782H423.194C424.085 413.782 424.784 413.082 424.784 412.192V398.2H447.935C451.242 398.2 454.358 396.673 456.393 394.066C458.429 391.458 459.128 388.087 458.301 384.844L439.221 310.877C439.158 310.622 439.031 310.368 438.776 310.114L424.721 296.058V172.356C424.721 161.417 419.76 143.736 412.573 129.299C407.358 118.741 396.482 101.06 382.363 101.06C378.229 101.06 374.349 102.587 370.851 105.004V100.106C370.851 84.7788 364.555 59.8476 355.587 39.5592C349.291 24.804 335.681 0 318 0C300.319 0 286.709 24.804 280.158 39.5592C272.017 57.9396 266.102 80.0724 265.085 95.4636C265.085 95.5272 265.085 95.5908 265.085 95.5908C264.957 97.1172 264.894 98.6436 264.894 100.043V439.094C264.894 439.985 265.593 440.684 266.484 440.684H283.465V459.701L285.119 547.85C282.956 546.769 280.794 545.879 278.568 545.243C271.572 543.208 264.321 543.017 257.453 544.734C250.647 546.324 244.351 549.758 239.136 554.719C235.256 558.408 232.14 562.987 229.977 568.075C229.151 567.821 228.26 567.566 227.243 567.312C224.889 566.74 222.473 566.231 220.119 565.913C215.222 565.277 210.325 565.15 205.491 565.658C200.594 566.104 195.761 567.185 190.991 568.838C187.874 569.92 184.694 571.382 181.514 573.1C177.062 571.001 172.165 569.665 167.395 569.22C164.279 568.902 161.035 569.029 157.855 569.474C154.929 569.856 151.877 570.619 148.633 571.891C142.782 574.181 137.439 577.806 133.178 582.512C131.207 584.675 129.426 587.155 127.709 590.144C127.009 591.353 126.437 592.688 125.864 594.088C120.395 593.197 114.734 592.37 108.947 591.862C100.424 591.162 92.9194 591.544 85.9234 592.943C78.1006 594.469 70.405 597.649 63.5998 602.101C57.4942 606.044 51.643 611.196 45.7918 617.747C45.4738 618.065 45.2194 618.446 44.965 618.828C43.3114 621.181 42.6754 624.107 43.1842 626.905C43.693 629.767 45.283 632.248 47.6362 633.901C49.4806 635.173 51.643 635.873 53.8054 635.873C54.4414 635.873 55.0774 635.809 55.7134 635.682C58.5754 635.173 61.0558 633.583 62.6458 631.23L62.773 631.039C66.7162 625.379 70.5958 620.927 74.7298 617.429C79.2454 613.549 84.397 610.624 90.0574 608.779C95.3998 606.998 101.442 605.917 108.565 605.663C114.162 605.408 119.822 605.599 125.801 605.79L129.108 605.917C131.588 605.981 133.878 604.454 134.768 602.165C134.768 602.101 134.832 602.038 134.832 602.038C135.659 599.748 136.613 597.713 137.63 595.996C139.029 593.833 140.365 592.116 141.764 590.78C144.944 587.6 148.76 585.247 152.894 583.912C155.247 583.148 157.283 582.703 159.254 582.576C161.417 582.385 163.579 582.385 165.741 582.703C169.939 583.276 174.073 584.866 177.571 587.346C179.988 589 183.231 589 185.648 587.219L185.712 587.155L185.775 587.092C189.083 584.484 192.39 582.385 195.697 580.859C199.322 579.142 203.075 577.87 206.954 577.106C210.897 576.28 214.968 575.962 219.038 576.089C221.01 576.152 223.045 576.343 225.144 576.598C226.352 576.788 227.306 576.916 228.133 577.106C229.087 577.297 230.168 577.552 230.931 577.806C231.313 577.933 231.758 577.933 232.14 577.806L234.684 577.17C234.747 577.17 234.811 577.17 234.811 577.106H234.875C235.574 576.979 236.083 576.47 236.337 575.834L236.719 575.008C236.719 574.944 236.783 574.88 236.783 574.88C238.691 569.792 241.743 565.404 245.687 562.224C249.757 558.853 254.527 556.627 259.488 555.8C264.449 554.91 269.537 555.355 274.37 557.136C276.66 557.963 278.822 559.171 280.921 560.634C282.893 562.033 284.673 563.75 286.263 565.658C286.327 565.722 286.327 565.722 286.391 565.786L286.772 566.167C288.108 567.439 289.889 568.139 291.733 568.075C293.577 568.012 295.231 567.248 296.503 565.913C297.775 564.577 298.411 562.86 298.347 561.079L296.63 461.291H338.988L337.271 561.079C337.207 562.924 337.843 564.641 339.115 565.976C340.323 567.312 342.041 568.075 343.821 568.139C345.666 568.202 347.51 567.503 348.782 566.231L349.227 565.849C349.291 565.786 349.291 565.786 349.355 565.722C350.945 563.814 352.789 562.097 354.697 560.698C356.796 559.235 358.958 558.026 361.248 557.2C366.018 555.419 371.169 554.974 376.13 555.864C381.091 556.691 385.861 558.917 389.931 562.288C393.811 565.531 396.927 569.92 398.772 574.944C398.772 575.008 398.835 575.071 398.835 575.071L399.153 575.898C399.408 576.534 399.98 577.043 400.553 577.17L400.68 577.234C400.743 577.234 400.743 577.234 400.807 577.234L403.351 577.806C403.733 577.933 404.178 577.87 404.623 577.742C405.386 577.488 406.404 577.234 407.421 577.043C408.248 576.852 409.202 576.661 410.411 576.534C412.509 576.216 414.545 576.089 416.516 576.025C420.587 575.898 424.657 576.216 428.6 577.043C432.48 577.806 436.232 579.078 439.857 580.795C443.165 582.322 446.472 584.42 449.779 587.028L449.843 587.092L449.97 587.155C452.387 588.872 455.567 588.872 458.047 587.219C461.545 584.802 465.679 583.212 469.877 582.576C471.975 582.258 474.201 582.258 476.427 582.449C478.335 582.576 480.434 583.021 482.724 583.784C486.794 585.12 490.674 587.537 493.854 590.653C495.253 592.052 496.589 593.77 497.988 595.868C499.069 597.649 500.023 599.684 500.85 601.974C500.85 602.038 500.913 602.101 500.913 602.101C501.804 604.454 504.093 605.981 506.637 605.854L509.881 605.726C515.859 605.536 521.583 605.345 527.117 605.599C534.24 605.917 540.345 606.935 545.624 608.716C551.221 610.624 556.373 613.549 560.952 617.365C565.086 620.863 568.965 625.315 572.972 630.976L573.036 631.039C574.689 633.392 577.17 634.982 580.032 635.491C580.668 635.618 581.304 635.682 581.94 635.682C584.166 635.682 586.265 634.982 588.109 633.71C590.462 632.057 592.052 629.576 592.561 626.714C593.261 624.234 592.625 621.308 590.971 618.955ZM367.671 437.568V413.782H393.302V437.568H367.671ZM356.033 413.782H364.491V437.568H356.033V413.782ZM409.266 437.568H396.609V413.782H409.266V437.568ZM421.731 410.538H343.503V400.171L346.175 398.2H421.731V410.538ZM268.137 239.136H340.26V263.558H268.137V239.136ZM343.44 307.697V307.633C343.44 307.57 343.44 307.57 343.44 307.506V307.442L355.269 214.841C355.587 209.498 360.039 205.364 365.382 205.364C370.979 205.364 375.558 209.944 375.558 215.54V372.314L340.959 398.009C340.959 398.009 340.896 398.009 340.896 398.072L324.233 410.474C324.169 410.538 324.042 410.602 323.978 410.729C322.706 412.128 320.925 412.955 318.954 412.955C316.855 412.955 314.947 412.001 313.675 410.347C312.403 408.694 311.958 406.595 312.467 404.687L343.44 307.697ZM436.423 312.022L455.439 385.607C456.012 387.833 455.567 390.186 454.104 392.03C452.705 393.875 450.542 394.956 448.189 394.956H425.039V300.574L436.423 312.022ZM421.731 234.048H392.921V177.953C392.921 165.424 395.973 156.392 401.952 151.05C407.358 146.216 413.718 145.835 416.135 145.835C419.569 155.756 421.668 165.614 421.668 172.42V234.048H421.731ZM415.053 142.591C411.619 142.718 405.386 143.672 399.917 148.57C393.175 154.548 389.741 164.406 389.741 177.953V235.702C389.741 236.592 390.44 237.292 391.331 237.292H421.731V394.956H350.499L378.102 374.413C378.483 374.095 378.738 373.65 378.738 373.141V215.477C378.738 208.099 372.759 202.057 365.318 202.057C358.259 202.057 352.407 207.527 351.962 214.459L343.376 281.748V172.356C343.376 162.625 348.21 144.499 355.905 129.426H409.139C409.393 129.871 409.584 130.316 409.838 130.762C411.81 134.514 413.527 138.521 415.053 142.591ZM407.549 126.182H357.75C361.439 119.504 365.7 113.59 370.343 109.646C370.47 109.583 370.597 109.456 370.724 109.328C374.477 106.212 378.483 104.368 382.617 104.368C393.239 104.368 402.143 116.515 407.549 126.182ZM352.407 129.362C345.284 143.8 340.26 161.48 340.26 172.42V235.892H268.137V100.106C268.137 99.216 268.137 98.262 268.201 97.2444H367.862C367.926 98.1984 367.926 99.1524 367.926 100.106V107.548C360.993 113.653 355.587 122.875 352.407 129.362ZM318 3.2436C333.836 3.2436 346.683 26.8392 352.916 40.8948C360.485 58.0032 366.272 79.182 367.608 94.0644H268.455C271.254 64.236 292.623 3.2436 318 3.2436ZM268.137 266.738H340.26V306.934L309.477 403.733C308.714 406.722 309.35 409.838 311.258 412.255C313.166 414.672 315.965 416.071 319.081 416.071C321.879 416.071 324.487 414.926 326.395 412.828L340.323 402.461V412.064C340.323 412.955 341.023 413.654 341.913 413.654H352.789V437.441H351.008H285.119H268.201V266.738H268.137ZM349.355 440.748V458.111H340.896H295.231H286.772V440.748H349.355ZM295.295 561.27C295.358 562.224 294.977 563.114 294.341 563.814C293.705 564.514 292.814 564.895 291.86 564.959C290.906 565.022 289.952 564.641 289.253 563.941L288.871 563.623C287.09 561.524 285.119 559.68 282.956 558.09C280.667 556.436 278.186 555.164 275.642 554.21C270.3 552.239 264.576 551.73 259.106 552.684C253.573 553.574 248.231 556.055 243.779 559.807C239.39 563.432 236.019 568.33 233.921 573.926V573.99L233.793 574.244L231.822 574.69C230.995 574.435 229.977 574.181 229.023 573.99C228.133 573.799 227.052 573.608 225.78 573.418C223.554 573.1 221.391 572.909 219.293 572.845C214.968 572.718 210.643 573.1 206.509 573.926C202.375 574.753 198.368 576.089 194.489 577.933C190.927 579.587 187.365 581.813 183.867 584.611C183.867 584.611 183.867 584.611 183.804 584.611C182.532 585.565 180.751 585.565 179.479 584.675C175.536 581.94 170.957 580.159 166.25 579.523C163.897 579.205 161.417 579.142 159.063 579.396C156.901 579.523 154.548 580.032 151.94 580.859C147.361 582.385 143.1 584.993 139.602 588.554C138.012 590.081 136.549 591.989 135.023 594.342C133.814 596.25 132.797 598.476 131.906 600.893C131.906 600.956 131.843 600.956 131.843 601.02C131.461 602.101 130.443 602.864 129.235 602.801L125.991 602.674C119.949 602.483 114.162 602.292 108.501 602.546C101.06 602.864 94.7002 603.946 89.1034 605.854C83.0614 607.889 77.5918 611.005 72.7582 615.139C68.4334 618.828 64.2994 623.471 60.229 629.322L60.1018 629.513C58.957 631.166 57.2398 632.311 55.2682 632.629C53.2966 633.011 51.2614 632.566 49.5442 631.357C47.8906 630.212 46.7458 628.432 46.4278 626.46C46.0462 624.488 46.4914 622.453 47.6998 620.736C47.8906 620.482 48.0814 620.227 48.2722 620.036C53.9962 613.676 59.593 608.716 65.4442 604.9C71.9314 600.702 79.2454 597.649 86.623 596.186C93.301 594.851 100.551 594.469 108.756 595.169C114.861 595.678 120.776 596.632 126.564 597.522H126.755C127.518 597.649 128.217 597.204 128.535 596.504C129.235 594.724 129.935 593.134 130.698 591.734C132.288 589 133.941 586.646 135.722 584.675C139.665 580.35 144.563 576.916 149.969 574.88C152.958 573.736 155.756 572.972 158.491 572.654C161.48 572.209 164.406 572.146 167.268 572.4C171.911 572.782 176.681 574.181 181.005 576.343C181.514 576.598 182.087 576.598 182.532 576.28C185.775 574.435 189.019 572.972 192.263 571.828C196.778 570.238 201.357 569.22 206 568.775C210.579 568.33 215.222 568.393 219.865 569.029C222.091 569.347 224.381 569.792 226.607 570.365C227.879 570.683 228.96 571.001 229.914 571.319L230.613 571.573C231.44 571.828 232.331 571.446 232.649 570.619C234.62 565.404 237.673 560.698 241.553 557.009C246.323 552.43 252.11 549.313 258.343 547.787C264.639 546.197 271.381 546.388 277.805 548.296C280.667 549.122 283.465 550.394 286.136 551.984C286.645 552.302 287.281 552.302 287.79 551.984C288.299 551.666 288.617 551.158 288.617 550.585L286.963 461.354H293.832L295.295 561.27ZM589.572 626.524C589.19 628.495 588.109 630.276 586.455 631.421C584.802 632.566 582.767 633.011 580.731 632.693C578.76 632.311 576.979 631.23 575.771 629.513L575.707 629.449C571.637 623.534 567.503 618.892 563.178 615.266C558.344 611.132 552.811 608.016 546.833 605.981C541.236 604.073 534.876 602.992 527.435 602.674C521.711 602.419 515.987 602.61 509.881 602.801L506.637 602.928C505.493 602.928 504.411 602.228 504.03 601.147C504.03 601.084 503.966 601.084 503.966 601.02C503.076 598.603 502.058 596.377 500.85 594.406C499.323 592.052 497.861 590.144 496.271 588.618C492.773 585.12 488.448 582.449 483.869 580.922C481.261 580.096 478.908 579.587 476.809 579.46C474.392 579.205 471.975 579.269 469.559 579.587C464.852 580.223 460.273 582.004 456.33 584.738C454.994 585.629 453.277 585.629 452.005 584.738H451.941C451.941 584.738 451.941 584.738 451.878 584.738C448.38 582.004 444.818 579.714 441.257 578.06C437.377 576.216 433.37 574.88 429.236 574.054C425.039 573.163 420.714 572.845 416.453 572.972C414.354 573.036 412.191 573.227 409.965 573.545C408.693 573.736 407.676 573.926 406.785 574.117C405.831 574.308 404.75 574.562 403.923 574.817L401.952 574.372L401.825 574.117V574.054C399.726 568.393 396.291 563.56 391.967 559.934C387.451 556.182 382.172 553.702 376.639 552.811C371.106 551.794 365.382 552.366 360.103 554.338C357.559 555.292 355.142 556.564 352.789 558.217C350.627 559.744 348.655 561.588 346.874 563.75L346.493 564.068C345.793 564.768 344.839 565.086 343.885 565.086C342.931 565.022 342.041 564.641 341.405 563.941C340.769 563.242 340.387 562.351 340.451 561.334L342.168 461.482H349.037L347.383 550.712C347.383 551.285 347.701 551.857 348.21 552.112C348.719 552.43 349.355 552.43 349.863 552.112C352.535 550.522 355.397 549.313 358.195 548.423C364.619 546.515 371.36 546.388 377.657 547.914C383.889 549.377 389.677 552.557 394.447 557.136C398.327 560.825 401.379 565.468 403.351 570.746C403.669 571.573 404.559 571.955 405.386 571.7L406.086 571.446C407.04 571.128 408.121 570.81 409.393 570.492C411.619 569.92 413.909 569.474 416.135 569.156C420.777 568.52 425.42 568.457 429.999 568.902C434.642 569.347 439.221 570.365 443.737 571.955C446.917 573.1 450.224 574.562 453.468 576.407C453.913 576.661 454.485 576.661 454.994 576.47C459.319 574.308 464.025 572.972 468.732 572.527C471.594 572.273 474.583 572.336 477.572 572.782C480.243 573.1 483.042 573.799 486.031 575.008C491.373 577.106 496.334 580.477 500.277 584.802C502.058 586.774 503.712 589.063 505.302 591.798C506.065 593.261 506.828 594.787 507.464 596.568C507.719 597.268 508.482 597.713 509.245 597.586H509.436C515.16 596.695 521.138 595.741 527.244 595.232C535.448 594.596 542.699 594.914 549.377 596.25C556.754 597.713 564.068 600.766 570.555 604.963C576.407 608.779 582.003 613.74 587.727 620.1C587.918 620.291 588.109 620.545 588.3 620.8C589.508 622.453 589.953 624.488 589.572 626.524Z" fill="black"/>
</g>
</svg>
