<svg width="691" height="864" viewBox="0 0 691 864" fill="none" xmlns="http://www.w3.org/2000/svg">
<g opacity="0.2">
<path d="M519.701 288.922C520.047 263.071 514.242 238.602 503.601 216.83C503.532 216.553 503.463 216.346 503.255 216.138C503.255 216.138 503.255 216.138 503.255 216.069C477.481 164.506 424.62 128.632 363.121 127.734C320.693 127.112 280.546 143.078 250.142 172.662C219.669 202.245 202.601 241.92 201.979 284.36C201.358 326.799 217.32 366.958 246.894 397.371C276.469 427.853 316.133 444.926 358.56 445.548C359.389 445.548 360.149 445.548 360.909 445.548C402.439 445.548 441.687 429.65 471.539 400.62C501.943 371.036 519.079 331.361 519.701 288.922ZM360.771 131.121C361.531 131.121 362.291 131.121 363.121 131.121C417.364 131.881 464.836 160.566 491.992 203.282C453.503 162.916 424.758 170.381 389.171 179.643C378.737 182.339 367.958 185.173 355.934 187.177C305.422 195.471 279.026 164.644 273.774 157.732C299.272 140.452 329.331 131.121 360.771 131.121ZM252.561 175.081C258.365 169.482 264.515 164.367 270.941 159.736C276.469 167.063 303.971 199.273 356.487 190.633C368.649 188.629 379.566 185.795 390.07 183.03C429.18 172.8 457.511 165.473 500.284 218.005C510.718 239.086 516.454 262.794 516.246 287.885C489.09 302.262 451.361 304.819 412.596 294.866C374.522 285.051 340.041 264.868 318.067 239.363C280.408 195.679 247.033 193.743 235.631 194.573C240.675 187.661 246.273 181.164 252.561 175.081ZM205.434 284.36C205.78 260.582 211.446 237.704 221.811 217.037C224.713 228.649 233.144 229.617 233.558 229.686C233.904 229.755 269.006 234.386 278.128 262.794C279.924 268.462 281.375 273.162 282.55 276.964C287.663 293.553 288.562 296.594 296.508 303.299C301.276 307.377 301.207 312.906 299.687 316.362C298.443 319.127 295.748 321.961 291.671 321.546C288.216 321.132 285.176 320.233 281.997 319.196C276.4 317.468 270.596 315.671 262.926 317.054C262.166 317.192 261.475 317.33 260.714 317.468C250.073 319.404 240.952 320.993 233.696 309.865C226.234 298.391 210.755 296.318 205.711 295.972C205.434 292.101 205.365 288.23 205.434 284.36ZM358.56 442.022C317.031 441.4 278.266 424.673 249.313 394.883C234.664 379.814 223.47 362.258 216.007 343.319C224.575 352.719 242.196 369.585 269.352 384.722C297.959 400.689 341.976 417.208 401.678 417.208C416.88 417.208 433.119 416.102 450.325 413.683C423.652 432.553 391.797 442.506 358.56 442.022ZM456.198 409.329C368.994 423.153 307.495 402.002 271.218 381.75C233.282 360.599 214.279 336.131 212.759 334.126C209.166 322.929 206.886 311.317 205.918 299.428C210.893 299.843 224.368 301.985 230.725 311.662C239.224 324.726 250.419 322.721 261.267 320.786C261.958 320.648 262.718 320.51 263.478 320.371C270.319 319.196 275.433 320.786 280.892 322.445C284.139 323.413 287.456 324.449 291.257 324.933C291.671 325.002 292.086 325.002 292.5 325.002C296.923 325.002 300.862 322.238 302.865 317.745C305.008 312.837 304.593 305.58 298.789 300.672C291.671 294.59 290.98 292.447 285.936 275.996C284.761 272.195 283.31 267.494 281.514 261.827C271.701 231.345 234.456 226.368 234.042 226.299C233.696 226.23 225.819 225.124 224.575 211.991C227.132 207.36 229.965 202.798 233.005 198.374C238.05 197.614 274.396 193.951 315.511 241.644C337.968 267.633 373.071 288.3 411.836 298.253C428.075 302.4 443.829 304.474 458.755 304.474C480.107 304.474 499.731 300.257 516.246 291.825C514.933 332.26 498.28 369.93 469.189 398.131C464.974 402.14 460.69 405.873 456.198 409.329Z" fill="black"/>
<path d="M381.432 243.371C386.269 245.169 389.586 248.002 393.11 250.975C398.776 255.813 405.133 261.274 418.953 262.518C420.957 262.725 422.823 262.794 424.619 262.794C440.443 262.794 450.187 256.642 454.609 253.809C455.369 253.325 455.991 252.91 456.475 252.703C457.096 252.357 459.93 252.841 461.933 253.186C468.774 254.292 479.07 255.951 485.635 248.348C488.675 244.823 489.643 241.367 488.468 238.118C485.635 230.515 471.677 226.921 460.413 225.262C447.561 223.396 445.419 220.285 441.895 215.17C439.96 212.337 437.472 208.811 432.704 204.802C419.022 193.329 395.943 207.775 394.215 208.95C391.037 210.609 386.822 210.263 381.432 209.848C374.384 209.295 365.539 208.604 355.312 212.267C350.959 213.788 348.748 216.138 348.748 219.179C348.679 229.133 374.937 240.952 381.432 243.371ZM356.418 215.447C362.291 213.373 367.75 212.82 372.587 212.82C375.628 212.82 378.461 213.028 381.086 213.235C386.822 213.65 391.797 214.065 395.805 211.922C395.874 211.922 395.874 211.853 395.943 211.853C396.15 211.714 418.47 197.407 430.424 207.429C434.846 211.162 437.057 214.341 438.992 217.106C442.793 222.566 445.488 226.575 459.861 228.649C474.233 230.792 483.424 234.662 485.151 239.293C485.911 241.298 485.151 243.51 483.009 246.067C477.688 252.219 468.913 250.767 462.486 249.73C459.031 249.178 456.475 248.763 454.885 249.592C454.333 249.869 453.641 250.353 452.743 250.836C447.699 254.016 437.265 260.651 419.299 258.993C406.515 257.818 400.849 252.979 395.39 248.279C391.797 245.238 388.135 242.058 382.676 240.054C370.514 235.63 352.203 224.986 352.272 219.11C352.203 217.728 353.585 216.484 356.418 215.447Z" fill="black"/>
<path d="M450.187 342.697C443.138 343.319 435.814 344.011 430.562 339.794C419.092 330.601 404.442 339.587 402.438 340.831C395.459 343.181 394.216 342.421 392.004 341.108C389.724 339.794 386.615 337.928 378.323 337.859C370.445 337.721 366.99 341.108 365.47 343.941C361.877 350.715 365.332 362.397 374.868 376.013C379.705 382.856 387.029 385.206 395.39 385.206C404.857 385.206 415.637 382.303 425.656 379.538C433.603 377.396 441.065 375.322 447.353 374.769C458.409 373.801 466.494 368.963 469.604 361.567C471.815 356.176 471.055 350.231 467.531 345.946C463.73 341.453 457.166 342.075 450.187 342.697ZM466.356 360.254C463.799 366.405 456.751 370.414 447.008 371.313C440.443 371.866 432.773 373.94 424.689 376.151C405.893 381.266 386.407 386.589 377.632 374.009C368.994 361.705 365.608 351.061 368.51 345.531C369.961 342.766 373.209 341.315 377.977 341.315C378.046 341.315 378.115 341.315 378.253 341.315C385.647 341.384 388.204 342.905 390.208 344.08C393.317 345.946 395.459 346.845 403.751 344.08C403.89 344.011 404.028 343.941 404.166 343.872C404.304 343.803 418.401 334.472 428.42 342.49C434.777 347.605 443.138 346.845 450.532 346.153C456.82 345.6 462.21 345.117 464.836 348.158C467.531 351.406 468.083 356.037 466.356 360.254Z" fill="black"/>
<path d="M412.734 313.874C426.07 317.261 439.545 319.266 452.743 319.819H452.812C453.71 319.819 454.47 319.058 454.54 318.16C454.609 317.192 453.849 316.363 452.881 316.363C439.89 315.81 426.692 313.805 413.563 310.487C412.665 310.28 411.698 310.833 411.49 311.732C411.283 312.63 411.836 313.598 412.734 313.874Z" fill="black"/>
<path d="M391.59 307.1C391.728 307.169 394.63 308.414 399.744 310.072C399.951 310.142 400.089 310.141 400.296 310.141C401.057 310.141 401.678 309.658 401.955 308.966C402.231 308.068 401.748 307.1 400.849 306.755C395.874 305.096 392.972 303.852 392.972 303.852C392.074 303.506 391.106 303.852 390.692 304.75C390.346 305.718 390.761 306.685 391.59 307.1Z" fill="black"/>
<path d="M341.7 396.058C338.314 395.574 334.651 394.883 330.92 393.984C329.953 393.777 329.054 394.33 328.847 395.298C328.64 396.196 329.193 397.164 330.16 397.371C334.03 398.27 337.761 399.03 341.285 399.514C341.354 399.514 341.423 399.514 341.492 399.514C342.322 399.514 343.082 398.892 343.22 397.993C343.289 397.026 342.667 396.196 341.7 396.058Z" fill="black"/>
<path d="M312.263 388.247C284.277 377.948 258.848 361.774 258.572 361.567C257.743 361.083 256.706 361.29 256.153 362.12C255.67 362.949 255.877 363.986 256.706 364.539C256.983 364.677 282.757 381.128 311.088 391.565C311.295 391.634 311.503 391.703 311.71 391.703C312.401 391.703 313.092 391.288 313.368 390.597C313.645 389.56 313.161 388.593 312.263 388.247Z" fill="black"/>
<path d="M425.034 162.639C425.103 162.639 425.172 162.639 425.241 162.639C429.18 162.225 431.599 162.017 431.599 162.017C432.566 161.948 433.257 161.119 433.188 160.151C433.119 159.183 432.29 158.492 431.322 158.561C431.253 158.561 428.835 158.769 424.827 159.183C423.859 159.322 423.168 160.151 423.307 161.119C423.376 161.948 424.136 162.639 425.034 162.639Z" fill="black"/>
<path d="M367.336 174.113C367.405 174.113 367.543 174.113 367.612 174.113C373.347 173.146 379.152 171.832 384.818 170.173C392.626 167.892 402.093 165.888 412.942 164.229C413.909 164.091 414.531 163.192 414.393 162.225C414.254 161.257 413.356 160.635 412.389 160.773C401.402 162.432 391.797 164.436 383.85 166.787C378.322 168.376 372.725 169.69 367.059 170.588C366.092 170.726 365.47 171.625 365.608 172.593C365.746 173.491 366.506 174.113 367.336 174.113Z" fill="black"/>
<path d="M347.435 175.703C347.504 175.703 348.126 175.703 349.231 175.703C350.544 175.703 352.479 175.634 354.967 175.496C355.934 175.427 356.625 174.597 356.556 173.63C356.487 172.662 355.658 171.971 354.69 172.04C350.199 172.316 347.573 172.178 347.573 172.178C346.606 172.178 345.776 172.869 345.776 173.837C345.707 174.805 346.467 175.634 347.435 175.703Z" fill="black"/>
<path d="M317.86 226.921C318.205 227.336 318.689 227.543 319.173 227.543C319.587 227.543 319.933 227.405 320.278 227.129C321.038 226.507 321.108 225.401 320.486 224.709C319.795 223.88 319.104 223.12 318.413 222.29C317.791 221.599 316.685 221.53 315.994 222.152C315.303 222.774 315.234 223.88 315.856 224.571C316.478 225.401 317.169 226.161 317.86 226.921Z" fill="black"/>
<path d="M282.688 199.135C292.639 204.25 301.691 210.609 309.637 218.212C309.983 218.558 310.397 218.696 310.812 218.696C311.296 218.696 311.71 218.489 312.056 218.143C312.747 217.452 312.678 216.346 311.987 215.724C303.833 207.913 294.435 201.278 284.208 196.094C283.379 195.679 282.343 196.025 281.859 196.854C281.514 197.683 281.859 198.72 282.688 199.135Z" fill="black"/>
<path d="M262.995 191.462C262.995 191.462 265.689 192.085 270.043 193.674C270.25 193.743 270.457 193.743 270.596 193.743C271.287 193.743 271.978 193.329 272.254 192.568C272.599 191.67 272.116 190.702 271.217 190.357C266.657 188.698 263.824 188.076 263.755 188.076C262.856 187.868 261.889 188.421 261.682 189.389C261.474 190.357 262.096 191.255 262.995 191.462Z" fill="black"/>
<path d="M553.975 149.99C554.32 150.474 554.873 150.751 555.357 150.751C555.702 150.751 556.048 150.612 556.393 150.405C557.153 149.852 557.361 148.746 556.808 147.986C548.861 136.788 539.878 126.213 530.204 116.467C529.513 115.776 528.408 115.776 527.786 116.467C527.095 117.158 527.095 118.264 527.786 118.886C537.253 128.494 546.097 138.931 553.975 149.99Z" fill="black"/>
<path d="M502.288 96.699C504.499 98.3579 506.71 100.155 508.921 101.883C509.267 102.159 509.612 102.298 510.027 102.298C510.511 102.298 510.994 102.09 511.34 101.676C511.962 100.915 511.823 99.8094 511.063 99.2564C508.852 97.4593 506.572 95.6622 504.361 94.0033C503.601 93.4504 502.495 93.5886 501.942 94.3489C501.389 95.0401 501.528 96.0769 502.288 96.699Z" fill="black"/>
<path d="M451.016 66.7701C459.722 70.5026 468.36 74.8572 476.583 79.5573C476.859 79.6956 477.136 79.7647 477.481 79.7647C478.103 79.7647 478.656 79.4191 479.001 78.8661C479.485 78.0367 479.209 76.9999 478.38 76.5161C470.018 71.6777 461.312 67.3231 452.467 63.5215C451.569 63.1759 450.601 63.5215 450.187 64.4201C449.703 65.3186 450.118 66.3554 451.016 66.7701Z" fill="black"/>
<path d="M673.518 261.689C673.172 260.79 672.205 260.306 671.306 260.652C670.408 260.997 669.924 261.965 670.27 262.864C685.817 306.962 690.931 352.996 685.472 399.79C678.424 459.787 645.947 541.694 608.011 596.713C608.218 596.091 608.426 595.469 608.633 594.847C614.161 576.876 614.644 557.799 609.946 539.62C614.23 534.643 612.364 527.109 612.226 526.764C608.08 512.456 601.239 502.848 597.024 499.116C634.338 447.967 644.565 382.441 647.26 347.812C647.329 346.844 646.638 346.015 645.67 345.946C644.703 345.877 643.874 346.568 643.805 347.536C641.11 381.888 631.021 446.723 594.122 497.18C591.012 495.729 586.59 495.038 584.932 494.83C575.396 484.808 564.063 477.067 551.349 471.675C550.796 468.081 548.861 465.04 545.406 462.551C543.61 461.238 541.537 460.201 539.187 459.303C573.806 420.803 595.296 373.317 601.308 321.685C607.942 264.868 594.744 207.084 564.063 158.907C563.58 158.078 562.474 157.87 561.645 158.354C560.816 158.838 560.608 159.944 561.092 160.773C591.289 208.259 604.349 265.214 597.784 321.27C591.772 372.695 570.213 419.973 535.525 458.128C521.221 453.911 501.321 454.948 495.171 456.192C488.192 457.644 485.358 463.519 484.667 467.251C467.669 471.952 451.914 481.145 439.476 493.655C427.107 492.895 413.287 512.387 410.592 526.142C408.243 538.1 410.73 543.975 411.974 545.979C408.657 563.19 409.97 581.023 415.636 597.681C413.771 598.994 410.247 601.966 409.279 605.63C407.897 611.09 421.648 635.075 435.192 645.65C436.505 646.756 438.785 647.862 441.48 647.862C443.76 647.862 446.317 647.033 448.874 644.682C458.617 652.355 469.604 658.161 481.627 661.893C487.362 663.691 493.305 664.935 499.247 665.626C500.906 666.939 507.332 671.363 519.356 672.192C519.908 672.261 520.461 672.261 521.014 672.261C533.314 672.261 543.402 662.515 545.268 660.58C570.006 651.871 590.321 633.762 601.999 610.745C601.999 610.745 601.999 610.745 601.999 610.675C644.496 554.757 680.98 466.215 688.72 400.205C694.386 352.858 689.203 306.271 673.518 261.689ZM543.817 657.401C543.748 657.401 543.748 657.401 543.748 657.47C543.748 657.47 543.679 657.47 543.679 657.539C543.541 657.608 543.333 657.746 543.195 657.884C543.057 658.023 532.208 669.566 519.77 668.736C507.263 667.838 501.39 662.792 501.321 662.654C501.182 662.516 500.975 662.377 500.768 662.308C500.629 662.239 500.56 662.239 500.422 662.239C494.549 661.548 488.606 660.304 482.94 658.507C470.847 654.774 459.86 648.899 450.117 641.019C449.495 640.397 445.073 635.973 442.862 633.692C442.24 633.001 441.134 632.932 440.443 633.623C439.752 634.245 439.683 635.351 440.374 636.043C442.033 637.84 444.935 640.674 446.524 642.332C442.102 646.272 438.163 643.3 437.61 642.885C423.721 632.103 412.112 609.5 412.872 606.459C413.425 604.247 415.636 602.174 417.364 600.86C418.884 603.487 421.925 608.809 424.205 612.473C424.689 613.302 425.794 613.509 426.623 613.026C427.453 612.542 427.66 611.436 427.176 610.606C424.343 606.044 420.197 598.718 419.575 597.681C413.702 581.092 412.389 563.19 415.775 545.91C415.775 545.841 415.775 545.841 415.775 545.772C415.775 545.634 415.775 545.495 415.775 545.357C415.775 545.288 415.775 545.288 415.775 545.219C415.775 545.081 415.706 544.873 415.567 544.735C415.567 544.666 415.498 544.666 415.498 544.597C415.498 544.528 415.429 544.528 415.429 544.458C415.153 544.044 411.836 539.205 414.254 526.764C416.88 513.216 430.355 495.798 440.098 497.111C440.167 497.111 440.236 497.111 440.236 497.111C440.305 497.111 440.305 497.111 440.374 497.111C440.443 497.111 440.443 497.111 440.512 497.111C440.651 497.111 440.789 497.042 440.927 497.042C440.996 497.042 441.065 496.973 441.134 496.973C441.273 496.904 441.411 496.835 441.48 496.697C441.549 496.697 441.549 496.627 441.618 496.627C455.853 482.043 474.786 472.021 494.825 468.496C495.792 468.357 496.414 467.459 496.207 466.491C496 465.523 495.171 464.901 494.203 465.109C492.407 465.454 490.541 465.8 488.744 466.215C489.574 463.865 491.577 460.547 496.069 459.579C501.873 458.335 522.05 457.367 535.594 461.653H535.663C538.634 462.62 541.26 463.796 543.402 465.316C545.337 466.699 546.65 468.288 547.341 470.085C546.581 470.016 545.821 470.431 545.544 471.191C545.199 472.09 545.683 473.058 546.581 473.403C560.47 478.656 572.632 486.812 582.858 497.595L582.928 497.664C582.997 497.733 583.066 497.802 583.135 497.802C583.204 497.802 583.204 497.872 583.273 497.872C583.411 497.941 583.48 498.01 583.619 498.01C583.688 498.01 583.688 498.01 583.757 498.01C583.826 498.01 583.895 498.079 583.964 498.079C585.899 498.286 591.427 499.254 593.707 500.775C596.678 502.779 604.279 511.972 608.84 527.593C608.84 527.662 610.498 534.298 606.767 537.823C606.767 537.823 606.767 537.823 606.767 537.892C606.629 538.03 606.491 538.169 606.422 538.376C606.422 538.376 606.422 538.445 606.352 538.445C606.283 538.652 606.214 538.791 606.214 538.998V539.067C606.214 539.205 606.214 539.413 606.283 539.551C611.051 557.315 610.706 576.116 605.247 593.81C596.057 623.463 573.115 647.24 543.817 657.401Z" fill="black"/>
<path d="M660.043 237.635C660.32 238.257 660.941 238.671 661.632 238.671C661.84 238.671 662.116 238.602 662.323 238.533C663.222 238.118 663.567 237.082 663.153 236.252C660.458 230.446 657.625 224.571 654.584 218.903C654.101 218.074 653.064 217.728 652.235 218.212C651.406 218.696 651.06 219.733 651.544 220.562C654.584 226.092 657.417 231.898 660.043 237.635Z" fill="black"/>
<path d="M634.96 192.983C635.305 193.467 635.858 193.744 636.411 193.744C636.756 193.744 637.102 193.674 637.378 193.467C638.138 192.914 638.346 191.877 637.862 191.048C627.843 176.256 616.372 162.156 603.934 149.299C603.243 148.608 602.137 148.608 601.516 149.23C600.825 149.921 600.825 151.027 601.446 151.649C613.677 164.437 625.009 178.33 634.96 192.983Z" fill="black"/>
<path d="M662.185 292.862C661.287 293.069 660.665 294.037 660.873 294.935C661.909 299.497 662.876 304.197 663.706 308.828C663.844 309.658 664.604 310.28 665.433 310.28C665.502 310.28 665.64 310.28 665.71 310.28C666.677 310.142 667.299 309.243 667.092 308.275C666.262 303.575 665.295 298.875 664.258 294.244C663.982 293.207 663.084 292.654 662.185 292.862Z" fill="black"/>
<path d="M648.296 254.431C648.572 255.122 649.194 255.537 649.885 255.537C650.093 255.537 650.3 255.468 650.507 255.399C651.406 255.053 651.82 254.016 651.475 253.187C649.747 248.763 647.881 244.34 645.947 239.985C645.532 239.086 644.565 238.741 643.666 239.086C642.768 239.501 642.423 240.469 642.768 241.367C644.772 245.653 646.638 250.077 648.296 254.431Z" fill="black"/>
<path d="M588.594 158.907C588.939 159.252 589.423 159.46 589.907 159.46C590.321 159.46 590.736 159.322 591.081 158.976C591.772 158.354 591.841 157.248 591.219 156.557C588.041 153.032 584.724 149.507 581.338 146.189C580.647 145.498 579.542 145.498 578.92 146.189C578.229 146.88 578.229 147.986 578.92 148.608C582.167 151.926 585.484 155.382 588.594 158.907Z" fill="black"/>
<path d="M606.698 180.68C607.043 181.095 607.527 181.371 608.08 181.371C608.425 181.371 608.84 181.233 609.116 181.026C609.877 180.473 610.015 179.367 609.462 178.606C606.56 174.805 603.588 171.072 600.548 167.409C599.926 166.649 598.821 166.58 598.13 167.202C597.369 167.824 597.3 168.93 597.922 169.621C600.894 173.215 603.865 176.948 606.698 180.68Z" fill="black"/>
<path d="M625.217 204.526C626.046 204.043 626.254 202.937 625.77 202.107C623.282 198.098 620.587 194.089 617.892 190.149C617.34 189.389 616.303 189.182 615.474 189.735C614.714 190.288 614.507 191.325 615.059 192.154C617.754 196.025 620.38 200.034 622.868 203.973C623.213 204.526 623.766 204.803 624.319 204.803C624.595 204.803 624.941 204.665 625.217 204.526Z" fill="black"/>
<path d="M630.745 213.788C629.915 214.272 629.639 215.309 630.123 216.138C632.472 220.217 634.683 224.433 636.825 228.649C637.102 229.271 637.724 229.617 638.346 229.617C638.622 229.617 638.898 229.548 639.106 229.409C639.935 228.995 640.28 227.958 639.866 227.059C637.724 222.843 635.443 218.558 633.094 214.41C632.61 213.581 631.574 213.305 630.745 213.788Z" fill="black"/>
<path d="M644.703 477.481C644.91 477.55 645.117 477.62 645.325 477.62C646.016 477.62 646.638 477.205 646.914 476.514C648.711 472.09 650.438 467.597 652.097 463.174C652.442 462.275 651.958 461.307 651.06 460.962C650.162 460.616 649.194 461.1 648.849 461.998C647.26 466.353 645.532 470.846 643.736 475.2C643.39 476.099 643.805 477.067 644.703 477.481Z" fill="black"/>
<path d="M625.493 513.562C623.282 517.64 620.932 521.787 618.514 525.934C618.03 526.764 618.307 527.8 619.136 528.284C619.412 528.423 619.689 528.492 620.034 528.492C620.656 528.492 621.209 528.215 621.554 527.662C623.973 523.515 626.322 519.368 628.602 515.221C629.086 514.391 628.741 513.354 627.912 512.871C627.013 512.387 625.908 512.732 625.493 513.562Z" fill="black"/>
<path d="M665.778 322.79C666.331 327.421 666.815 332.191 667.16 336.891C667.229 337.789 667.99 338.481 668.888 338.481C668.957 338.481 668.957 338.481 669.026 338.481C669.993 338.412 670.684 337.582 670.615 336.614C670.27 331.845 669.786 327.076 669.233 322.376C669.095 321.408 668.266 320.717 667.299 320.855C666.331 320.993 665.64 321.823 665.778 322.79Z" fill="black"/>
<path d="M662.116 423.291C662.255 423.291 662.393 423.36 662.462 423.36C663.222 423.36 663.982 422.807 664.12 421.978C665.157 417.347 666.124 412.578 666.884 407.947C667.022 406.979 666.401 406.08 665.502 405.942C664.535 405.804 663.637 406.426 663.498 407.324C662.669 411.956 661.771 416.587 660.734 421.218C660.596 422.185 661.149 423.084 662.116 423.291Z" fill="black"/>
<path d="M638.138 488.195C636.203 492.411 634.131 496.766 632.058 500.982C631.643 501.811 631.988 502.848 632.818 503.332C633.094 503.47 633.301 503.539 633.578 503.539C634.2 503.539 634.822 503.194 635.098 502.572C637.24 498.286 639.313 493.932 641.248 489.646C641.662 488.748 641.248 487.78 640.419 487.365C639.52 486.951 638.553 487.365 638.138 488.195Z" fill="black"/>
<path d="M667.368 395.297C668.197 395.297 668.957 394.675 669.095 393.777C669.717 389.077 670.201 384.238 670.546 379.538C670.615 378.57 669.924 377.741 668.957 377.672C667.99 377.603 667.16 378.294 667.091 379.262C666.746 383.962 666.262 388.662 665.64 393.362C665.502 394.33 666.193 395.159 667.16 395.297C667.229 395.297 667.299 395.297 667.368 395.297Z" fill="black"/>
<path d="M654.515 450.732C654.723 450.801 654.861 450.801 655.068 450.801C655.828 450.801 656.45 450.317 656.726 449.626C658.178 445.064 659.56 440.433 660.734 435.871C661.011 434.973 660.458 434.005 659.49 433.728C658.592 433.452 657.625 434.005 657.348 434.973C656.105 439.465 654.792 444.027 653.341 448.589C653.133 449.488 653.617 450.455 654.515 450.732Z" fill="black"/>
<path d="M671.307 365.23C671.376 362.673 671.445 360.046 671.445 357.42C671.445 355.277 671.445 353.065 671.376 350.923C671.376 349.955 670.546 349.195 669.579 349.264C668.612 349.264 667.852 350.093 667.921 351.061C667.99 353.203 667.99 355.346 667.99 357.489C667.99 360.046 667.921 362.673 667.852 365.23C667.852 366.198 668.612 366.958 669.51 367.027C669.51 367.027 669.51 367.027 669.579 367.027C670.477 366.958 671.237 366.198 671.307 365.23Z" fill="black"/>
<path d="M659.007 282.494C659.145 282.494 659.352 282.494 659.491 282.425C660.389 282.148 660.942 281.18 660.665 280.282C659.352 275.72 657.97 271.089 656.45 266.596C656.174 265.698 655.137 265.214 654.239 265.49C653.341 265.767 652.857 266.803 653.133 267.702C654.653 272.195 656.035 276.688 657.348 281.25C657.556 282.01 658.247 282.494 659.007 282.494Z" fill="black"/>
<path d="M568.624 138.793C568.969 139.07 569.384 139.277 569.798 139.277C570.282 139.277 570.766 139.07 571.042 138.724C571.664 138.033 571.664 136.927 570.973 136.305C569.246 134.715 567.518 133.195 565.791 131.674C565.1 131.052 563.994 131.121 563.372 131.812C562.75 132.503 562.819 133.609 563.51 134.231C565.238 135.683 566.965 137.204 568.624 138.793Z" fill="black"/>
<path d="M518.388 505.406C517.421 508.654 518.872 512.318 522.603 515.774C525.989 518.953 530.964 521.649 536.492 523.308C540.638 524.552 544.577 525.174 548.17 525.174C555.08 525.174 560.332 522.893 561.645 518.677C563.579 512.387 555.633 504.438 543.471 500.706C531.31 497.042 520.323 499.047 518.388 505.406ZM521.636 506.443C522.396 504.023 526.265 502.434 531.724 502.434C534.834 502.434 538.496 502.987 542.366 504.162C553.145 507.479 559.364 514.046 558.259 517.778C557.084 521.58 548.239 523.446 537.46 520.059C532.346 518.469 527.924 516.05 524.883 513.286C522.258 510.797 521.083 508.309 521.636 506.443Z" fill="black"/>
<path d="M422.823 543.767C423.79 544.251 424.896 544.527 426.002 544.527C431.599 544.527 438.509 538.721 443.208 529.666C448.805 518.746 448.666 507.894 442.793 504.852C439.822 503.332 435.952 504.092 432.013 506.995C428.42 509.691 424.965 513.907 422.408 518.953C419.852 523.999 418.401 529.183 418.332 533.745C418.193 538.721 419.783 542.246 422.823 543.767ZM425.449 520.612C427.798 516.05 430.839 512.248 434.017 509.898C436.021 508.447 437.956 507.617 439.476 507.617C440.098 507.617 440.651 507.755 441.135 507.963C444.59 509.76 445.004 518.469 440.029 528.077C435.054 537.754 427.798 542.454 424.274 540.657C422.547 539.758 421.579 537.27 421.648 533.745C421.787 529.874 423.099 525.174 425.449 520.612Z" fill="black"/>
<path d="M521.152 622.841C515.9 622.633 510.925 624.5 507.125 628.094C503.324 631.688 501.113 636.527 500.906 641.711C500.698 646.964 502.564 651.94 506.157 655.742C509.751 659.544 514.588 661.755 519.77 661.963C519.977 661.963 520.254 661.963 520.461 661.963C525.436 661.963 530.135 660.096 533.797 656.71C537.598 653.115 539.809 648.277 540.016 643.093C540.431 632.31 532.001 623.186 521.152 622.841ZM531.448 654.221C528.269 657.124 524.192 658.714 519.908 658.507C515.624 658.368 511.616 656.571 508.714 653.392C505.812 650.212 504.223 646.134 504.43 641.849C504.568 637.563 506.365 633.554 509.543 630.651C512.584 627.817 516.453 626.297 520.53 626.297C520.737 626.297 520.945 626.297 521.083 626.297C529.997 626.642 536.907 634.107 536.63 642.955C536.423 647.24 534.627 651.249 531.448 654.221Z" fill="black"/>
<path d="M583.826 572.452C580.302 571.346 576.501 571.692 573.254 573.42C570.006 575.148 567.587 578.051 566.482 581.576C564.201 588.903 568.347 596.644 575.603 598.925C576.985 599.34 578.367 599.547 579.68 599.547C585.622 599.547 591.081 595.746 592.947 589.801C595.227 582.475 591.15 574.733 583.826 572.452ZM589.699 588.765C588.041 594.225 582.167 597.335 576.709 595.607C571.25 593.949 568.14 588.073 569.868 582.613C570.697 579.986 572.493 577.774 574.981 576.461C576.501 575.632 578.16 575.286 579.818 575.286C580.855 575.286 581.891 575.424 582.928 575.77C588.317 577.429 591.358 583.304 589.699 588.765Z" fill="black"/>
<path d="M503.186 582.958C504.499 583.373 505.881 583.58 507.194 583.58C512.998 583.58 518.388 579.848 520.116 574.042C522.327 566.922 518.319 559.319 511.133 557.107C504.015 554.895 496.414 558.904 494.203 566.093C492.061 573.143 496.069 580.746 503.186 582.958ZM497.589 566.991C498.902 562.706 502.91 559.872 507.194 559.872C508.161 559.872 509.198 560.01 510.165 560.356C515.486 562.015 518.457 567.683 516.799 573.005C515.141 578.327 509.474 581.299 504.154 579.64C498.902 577.981 495.931 572.314 497.589 566.991Z" fill="black"/>
<path d="M456.889 585.101C451.983 583.58 446.732 586.345 445.211 591.253C443.691 596.16 446.455 601.413 451.361 602.934C452.26 603.211 453.227 603.349 454.125 603.349C455.645 603.349 457.097 603.003 458.479 602.243C460.69 601.068 462.279 599.132 463.039 596.713C464.559 591.875 461.795 586.622 456.889 585.101ZM459.722 595.746C459.239 597.266 458.271 598.51 456.82 599.202C455.438 599.962 453.849 600.1 452.329 599.616C450.808 599.132 449.565 598.165 448.874 596.713C448.114 595.331 447.975 593.741 448.459 592.22C448.943 590.7 449.91 589.456 451.361 588.764C452.19 588.281 453.158 588.073 454.125 588.073C454.678 588.073 455.3 588.142 455.853 588.35C457.373 588.834 458.617 589.801 459.308 591.253C460.068 592.704 460.206 594.294 459.722 595.746Z" fill="black"/>
<path d="M451.569 503.332C451.707 503.401 454.955 505.198 456.198 509.553C457.511 514.046 456.267 519.575 452.605 526.003C452.121 526.833 452.398 527.87 453.227 528.354C453.503 528.492 453.78 528.561 454.056 528.561C454.678 528.561 455.231 528.215 455.576 527.662C459.722 520.336 461.035 513.838 459.446 508.447C457.719 502.641 453.296 500.291 453.089 500.222C452.26 499.807 451.223 500.083 450.739 500.982C450.394 501.881 450.739 502.917 451.569 503.332Z" fill="black"/>
<path d="M443.76 543.836C443 543.214 441.895 543.352 441.342 544.113C431.391 556.9 420.612 548.744 420.128 548.398C419.368 547.776 418.262 547.914 417.71 548.674C417.088 549.435 417.226 550.541 417.986 551.094C418.193 551.232 422.685 554.688 428.835 554.688C429.457 554.688 430.148 554.619 430.769 554.55C435.676 553.928 440.167 551.163 444.037 546.186C444.659 545.495 444.52 544.389 443.76 543.836Z" fill="black"/>
<path d="M507.678 618.555C507.401 617.657 506.434 617.104 505.536 617.38C505.328 617.449 487.639 623.048 492.061 648.069C492.199 648.899 492.959 649.521 493.789 649.521C493.858 649.521 493.996 649.521 494.065 649.521C495.032 649.383 495.654 648.484 495.447 647.516C491.577 625.605 505.881 620.905 506.503 620.698C507.47 620.421 507.954 619.523 507.678 618.555Z" fill="black"/>
<path d="M543.333 625.052C542.504 625.605 542.297 626.642 542.85 627.471C542.919 627.61 550.312 639.291 544.162 649.797C543.679 650.627 543.955 651.663 544.784 652.147C545.061 652.286 545.337 652.355 545.683 652.355C546.305 652.355 546.857 652.078 547.203 651.525C554.458 639.084 546.097 626.089 545.752 625.536C545.199 624.776 544.093 624.568 543.333 625.052Z" fill="black"/>
<path d="M546.581 528.561C545.613 528.492 544.784 529.183 544.715 530.151C544.646 531.119 545.337 531.948 546.304 532.017C546.443 532.017 547.548 532.155 549.138 532.155C554.32 532.155 565.238 531.119 568.624 522.824C568.969 521.926 568.555 520.958 567.656 520.543C566.758 520.198 565.791 520.612 565.376 521.511C561.921 529.874 546.719 528.561 546.581 528.561Z" fill="black"/>
<path d="M518.733 496.351C519.632 496.005 520.046 494.968 519.632 494.07C519.286 493.171 518.25 492.756 517.352 493.171C517.075 493.24 511.409 495.798 509.543 501.742C508.161 506.097 509.267 511.073 512.722 516.465C513.067 516.948 513.62 517.294 514.173 517.294C514.518 517.294 514.795 517.225 515.071 517.018C515.9 516.534 516.108 515.428 515.624 514.598C512.791 510.106 511.824 506.166 512.86 502.779C514.173 498.355 518.664 496.351 518.733 496.351Z" fill="black"/>
<path d="M460.206 577.982C459.308 577.775 458.34 578.328 458.133 579.226C457.926 580.125 458.478 581.092 459.377 581.369C459.722 581.438 468.221 583.788 467.461 592.981C467.392 593.949 468.083 594.778 469.051 594.847C469.12 594.847 469.12 594.847 469.189 594.847C470.087 594.847 470.847 594.156 470.916 593.258C471.607 583.581 464.214 579.019 460.206 577.982Z" fill="black"/>
<path d="M591.15 566.439C590.252 566.162 589.285 566.646 589.008 567.545C588.732 568.443 589.216 569.411 590.114 569.688C590.459 569.826 598.268 572.383 598.199 582.267C598.199 583.235 598.959 583.995 599.926 583.995C600.893 583.995 601.654 583.235 601.654 582.267C601.792 569.826 591.289 566.439 591.15 566.439Z" fill="black"/>
<path d="M578.713 605.491C561.783 604.178 561.369 590.976 561.369 590.354C561.369 589.386 560.608 588.626 559.641 588.626C558.674 588.626 557.914 589.386 557.914 590.354C557.914 590.492 558.259 607.288 578.436 608.878C578.505 608.878 578.505 608.878 578.575 608.878C579.473 608.878 580.233 608.187 580.302 607.288C580.371 606.39 579.68 605.56 578.713 605.491Z" fill="black"/>
<path d="M606.076 530.081C596.955 520.059 591.288 502.295 591.219 502.157C590.943 501.258 589.976 500.705 589.077 501.051C588.179 501.327 587.626 502.295 587.972 503.194C588.179 503.954 593.914 521.856 603.588 532.431C603.934 532.777 604.417 532.984 604.901 532.984C605.316 532.984 605.73 532.846 606.076 532.5C606.698 531.878 606.698 530.772 606.076 530.081Z" fill="black"/>
<path d="M505.121 467.666C505.19 467.666 514.311 466.076 524.953 468.288C525.091 468.288 525.16 468.357 525.298 468.357C526.127 468.357 526.818 467.804 527.026 466.975C527.233 466.007 526.611 465.109 525.644 464.901C514.242 462.551 504.845 464.21 504.499 464.279C503.532 464.417 502.91 465.316 503.117 466.284C503.255 467.251 504.154 467.804 505.121 467.666Z" fill="black"/>
<path d="M458.755 606.39C451.983 609.224 447.077 604.731 446.87 604.524C446.179 603.902 445.073 603.902 444.451 604.593C443.76 605.284 443.829 606.39 444.52 607.012C444.728 607.219 448.528 610.814 454.333 610.814C456.129 610.814 458.064 610.468 460.137 609.569C461.035 609.224 461.45 608.187 461.035 607.288C460.69 606.39 459.653 605.975 458.755 606.39Z" fill="black"/>
<path d="M430.838 616.343C430.285 615.583 429.18 615.376 428.42 615.929C427.66 616.482 427.452 617.587 428.005 618.348L430.424 621.804C430.769 622.288 431.322 622.564 431.875 622.564C432.22 622.564 432.566 622.495 432.842 622.219C433.602 621.666 433.81 620.56 433.257 619.799L430.838 616.343Z" fill="black"/>
<path d="M646.43 331.016C647.398 331.016 648.158 330.256 648.227 329.357C648.365 323.897 648.296 320.855 648.296 320.717C648.296 319.749 647.467 319.058 646.499 319.058C645.532 319.058 644.772 319.888 644.841 320.855C644.841 320.855 644.91 323.966 644.772 329.288C644.703 330.186 645.463 331.016 646.43 331.016Z" fill="black"/>
<path d="M573.115 462.828C570.42 466.491 567.518 470.085 564.616 473.611C563.994 474.371 564.132 475.408 564.823 476.03C565.169 476.306 565.514 476.444 565.929 476.444C566.413 476.444 566.896 476.237 567.242 475.822C570.213 472.228 573.115 468.565 575.879 464.832C576.432 464.072 576.294 462.966 575.534 462.413C574.774 461.929 573.668 462.067 573.115 462.828Z" fill="black"/>
<path d="M623.144 319.335C623.144 315.464 623.075 311.524 622.868 307.653C622.798 306.686 621.969 305.925 621.071 305.995C620.104 306.064 619.343 306.824 619.413 307.792C619.551 311.662 619.62 315.533 619.62 319.335C619.62 320.095 619.62 320.786 619.62 321.547C619.62 322.514 620.38 323.275 621.347 323.275C622.315 323.275 623.075 322.514 623.075 321.547C623.144 320.786 623.144 320.026 623.144 319.335Z" fill="black"/>
<path d="M619.689 350.923C620.587 350.923 621.278 350.3 621.416 349.402C621.969 344.84 622.315 340.14 622.591 335.509C622.66 334.541 621.9 333.712 620.933 333.643C619.965 333.573 619.136 334.334 619.067 335.301C618.79 339.863 618.376 344.494 617.892 348.987C617.754 349.955 618.445 350.784 619.412 350.923C619.62 350.923 619.689 350.923 619.689 350.923Z" fill="black"/>
<path d="M614.645 378.156C614.783 378.156 614.921 378.225 615.059 378.225C615.819 378.225 616.579 377.672 616.718 376.912C617.754 372.419 618.652 367.788 619.482 363.226C619.62 362.258 618.998 361.36 618.1 361.221C617.132 361.083 616.234 361.705 616.096 362.604C615.336 367.097 614.437 371.659 613.401 376.082C613.124 377.05 613.746 377.948 614.645 378.156Z" fill="black"/>
<path d="M585.277 173.008C584.448 173.491 584.102 174.528 584.586 175.358C584.586 175.427 587.073 179.85 590.598 187.73C590.874 188.352 591.496 188.767 592.187 188.767C592.394 188.767 592.671 188.698 592.878 188.629C593.776 188.214 594.122 187.177 593.776 186.348C590.183 178.33 587.764 173.906 587.626 173.699C587.143 172.8 586.106 172.524 585.277 173.008Z" fill="black"/>
<path d="M600.755 213.374C601.032 214.065 601.654 214.549 602.414 214.549C602.621 214.549 602.828 214.549 602.967 214.48C603.865 214.134 604.349 213.166 604.003 212.268C602.483 207.844 600.824 203.49 599.097 199.204C598.751 198.306 597.715 197.891 596.817 198.237C595.918 198.582 595.504 199.619 595.849 200.517C597.646 204.665 599.235 209.019 600.755 213.374Z" fill="black"/>
<path d="M602.828 414.375C601.93 414.029 600.963 414.375 600.548 415.273C598.751 419.489 596.817 423.637 594.744 427.715C594.329 428.544 594.674 429.581 595.504 430.065C595.78 430.203 595.987 430.272 596.264 430.272C596.886 430.272 597.508 429.927 597.784 429.304C599.857 425.157 601.861 420.872 603.657 416.655C604.141 415.757 603.727 414.789 602.828 414.375Z" fill="black"/>
<path d="M588.248 439.88C585.968 443.82 583.55 447.759 580.993 451.561C580.44 452.39 580.716 453.427 581.477 453.98C581.753 454.188 582.098 454.257 582.444 454.257C582.997 454.257 583.55 453.98 583.895 453.496C586.452 449.626 588.939 445.617 591.22 441.608C591.703 440.778 591.427 439.741 590.598 439.258C589.769 438.774 588.732 439.05 588.248 439.88Z" fill="black"/>
<path d="M606.698 404.698C606.905 404.767 607.112 404.767 607.251 404.767C607.942 404.767 608.633 404.352 608.909 403.592C610.498 399.237 611.949 394.744 613.262 390.321C613.539 389.422 612.986 388.454 612.088 388.178C611.189 387.902 610.222 388.454 609.946 389.353C608.633 393.708 607.251 398.131 605.661 402.417C605.316 403.384 605.8 404.421 606.698 404.698Z" fill="black"/>
<path d="M616.579 268.117C616.648 268.117 616.787 268.117 616.856 268.117C617.823 267.978 618.445 267.08 618.238 266.112C617.408 261.619 616.51 256.988 615.474 252.426C615.266 251.459 614.368 250.906 613.401 251.113C612.433 251.321 611.88 252.219 612.088 253.187C613.055 257.68 614.023 262.241 614.783 266.734C614.99 267.495 615.75 268.117 616.579 268.117Z" fill="black"/>
<path d="M610.568 241.022C610.706 241.022 610.844 241.022 610.982 240.952C611.88 240.676 612.433 239.777 612.226 238.81C611.051 234.317 609.738 229.824 608.425 225.4C608.149 224.502 607.182 223.949 606.283 224.225C605.385 224.502 604.832 225.47 605.109 226.368C606.491 230.723 607.734 235.215 608.909 239.639C609.116 240.538 609.807 241.022 610.568 241.022Z" fill="black"/>
<path d="M616.994 280.282C617.616 284.844 618.1 289.475 618.514 293.968C618.583 294.866 619.344 295.557 620.242 295.557C620.311 295.557 620.311 295.557 620.38 295.557C621.347 295.488 622.038 294.659 621.969 293.691C621.555 289.129 621.071 284.429 620.449 279.867C620.311 278.9 619.413 278.277 618.514 278.347C617.547 278.485 616.856 279.314 616.994 280.282Z" fill="black"/>
<path d="M143.797 495.867C144.005 495.867 144.281 495.798 144.488 495.729C146.423 494.899 148.358 494.001 150.224 493.102C151.053 492.687 151.467 491.651 150.984 490.752C150.569 489.923 149.533 489.508 148.634 489.992C146.838 490.89 144.972 491.72 143.037 492.549C142.139 492.895 141.724 493.932 142.139 494.83C142.484 495.452 143.106 495.867 143.797 495.867Z" fill="black"/>
<path d="M110.145 504.162C110.214 504.162 110.214 504.162 110.284 504.162C119.888 503.401 129.424 501.328 138.545 498.079C139.444 497.733 139.927 496.766 139.582 495.867C139.236 494.969 138.269 494.485 137.371 494.83C128.526 498.01 119.336 500.014 110.007 500.775C109.04 500.844 108.349 501.673 108.418 502.641C108.487 503.47 109.247 504.162 110.145 504.162Z" fill="black"/>
<path d="M93.0085 504.23C95.2197 504.369 97.5 504.507 99.7112 504.507C100.679 504.507 101.439 503.746 101.439 502.779C101.439 501.811 100.679 501.051 99.7112 501.051C97.5691 501.051 95.3579 500.913 93.2158 500.774C92.2484 500.705 91.4192 501.396 91.3501 502.364C91.3501 503.263 92.1102 504.161 93.0085 504.23Z" fill="black"/>
<path d="M150.707 510.244C150.915 511.005 151.606 511.488 152.366 511.488C152.504 511.488 152.711 511.488 152.849 511.419C155.337 510.728 157.894 509.899 160.312 509.069C161.21 508.793 161.694 507.756 161.418 506.857C161.141 505.959 160.105 505.475 159.207 505.751C156.788 506.581 154.37 507.341 151.882 508.032C150.984 508.309 150.431 509.277 150.707 510.244Z" fill="black"/>
<path d="M136.887 513.423C137.025 514.253 137.785 514.806 138.615 514.806C138.753 514.806 138.822 514.806 138.96 514.737C139.858 514.529 140.826 514.322 141.724 514.184C142.691 513.976 143.244 513.078 143.037 512.11C142.83 511.142 141.931 510.589 140.964 510.797C140.066 511.004 139.167 511.211 138.269 511.35C137.302 511.626 136.68 512.525 136.887 513.423Z" fill="black"/>
<path d="M110.007 518.331H110.076C118.092 517.986 126.107 517.087 133.985 515.705C134.952 515.566 135.574 514.668 135.367 513.7C135.229 512.732 134.33 512.11 133.363 512.318C125.693 513.631 117.746 514.53 109.869 514.875C108.901 514.944 108.141 515.705 108.21 516.672C108.349 517.64 109.109 518.331 110.007 518.331Z" fill="black"/>
<path d="M85.7531 517.916C90.2446 518.262 94.8743 518.538 99.3658 518.538C100.333 518.538 101.093 517.778 101.093 516.81C101.093 515.843 100.333 515.082 99.3658 515.082C94.8743 515.013 90.3828 514.806 85.9604 514.46C84.993 514.391 84.1638 515.082 84.0947 516.05C84.0947 516.949 84.7857 517.847 85.7531 517.916Z" fill="black"/>
<path d="M148.289 531.256C148.496 532.017 149.187 532.57 149.947 532.57C150.085 532.57 150.223 532.57 150.362 532.501C157.064 530.911 163.629 528.906 169.986 526.625C170.884 526.28 171.368 525.312 171.023 524.414C170.677 523.515 169.71 523.031 168.811 523.377C162.592 525.589 156.097 527.524 149.532 529.114C148.634 529.39 148.081 530.358 148.289 531.256Z" fill="black"/>
<path d="M106.898 538.168C117.332 537.961 127.697 536.924 137.786 535.196C138.753 535.058 139.375 534.159 139.168 533.192C139.029 532.224 138.131 531.602 137.164 531.809C127.213 533.537 117.056 534.505 106.829 534.782C105.861 534.782 105.101 535.611 105.17 536.579C105.17 537.408 106 538.168 106.898 538.168Z" fill="black"/>
<path d="M90.0374 537.823C92.1795 537.961 94.3216 538.03 96.4637 538.099C96.4637 538.099 96.4637 538.099 96.5328 538.099C97.5002 538.099 98.2603 537.339 98.2603 536.44C98.2603 535.473 97.5002 534.712 96.6019 534.643C94.5289 534.574 92.3868 534.505 90.3138 534.367C89.3464 534.298 88.5172 535.058 88.5172 536.026C88.3099 536.993 89.07 537.823 90.0374 537.823Z" fill="black"/>
<path d="M75.5954 536.51C77.5993 536.786 79.6723 536.994 81.6762 537.201C81.7453 537.201 81.8144 537.201 81.8144 537.201C82.7127 537.201 83.4728 536.51 83.5419 535.611C83.611 534.643 82.92 533.814 82.0217 533.745C80.0178 533.538 78.0139 533.33 76.01 533.054C75.0426 532.916 74.2134 533.607 74.0752 534.574C73.937 535.542 74.628 536.372 75.5954 536.51Z" fill="black"/>
<path d="M178.486 551.163C178.693 551.163 178.831 551.163 179.038 551.094C181.111 550.403 183.253 549.642 185.257 548.813C186.156 548.467 186.57 547.5 186.294 546.601C185.948 545.702 184.981 545.288 184.083 545.564C182.079 546.324 180.006 547.085 177.933 547.776C177.034 548.052 176.551 549.089 176.827 549.988C177.104 550.679 177.795 551.163 178.486 551.163Z" fill="black"/>
<path d="M170.677 550.126C164.113 552.13 157.341 553.789 150.431 555.172C149.463 555.379 148.911 556.278 149.049 557.176C149.187 558.006 149.947 558.559 150.776 558.559C150.915 558.559 150.984 558.559 151.122 558.559C158.101 557.176 165.011 555.448 171.645 553.444C172.543 553.167 173.096 552.2 172.819 551.301C172.543 550.333 171.575 549.849 170.677 550.126Z" fill="black"/>
<path d="M100.817 561.255C100.817 562.222 101.577 562.983 102.544 562.983C103.512 562.983 104.479 562.983 105.447 562.983C118.368 562.983 131.359 561.946 143.935 559.803C144.903 559.665 145.525 558.766 145.386 557.799C145.248 556.831 144.35 556.209 143.382 556.347C130.046 558.559 116.295 559.596 102.544 559.458C101.646 559.527 100.886 560.287 100.817 561.255Z" fill="black"/>
<path d="M82.9891 558.49C82.0217 558.421 81.1925 559.112 81.1234 560.08C81.0543 561.048 81.7453 561.877 82.7127 561.946C84.302 562.084 85.8222 562.223 87.4115 562.361C87.4806 562.361 87.4806 562.361 87.5497 562.361C88.448 562.361 89.2081 561.67 89.2772 560.771C89.3463 559.803 88.6553 558.974 87.6879 558.905C86.0295 558.767 84.5093 558.628 82.9891 558.49Z" fill="black"/>
<path d="M126.799 585.654C123.067 585.792 119.198 585.792 115.466 585.792C114.499 585.792 113.739 586.552 113.739 587.52C113.739 588.488 114.499 589.248 115.466 589.248C116.157 589.248 116.848 589.248 117.47 589.248C120.58 589.248 123.758 589.179 126.868 589.11C127.835 589.11 128.595 588.28 128.526 587.313C128.526 586.345 127.697 585.585 126.799 585.654Z" fill="black"/>
<path d="M106.483 585.585C94.8051 585.17 83.1963 584.064 71.8639 582.267C70.8965 582.129 70.0673 582.751 69.86 583.719C69.7218 584.686 70.3437 585.516 71.3111 585.723C82.7126 587.52 94.5287 588.626 106.345 589.041H106.414C107.312 589.041 108.141 588.281 108.141 587.382C108.141 586.414 107.381 585.585 106.483 585.585Z" fill="black"/>
<path d="M84.3022 608.74C83.6112 608.67 82.9202 608.601 82.2292 608.532C81.1927 608.463 80.2253 608.325 79.1888 608.256C78.2214 608.187 77.3922 608.878 77.3231 609.776C77.254 610.675 77.945 611.573 78.8433 611.643C79.8798 611.712 80.8472 611.85 81.8837 611.919C82.5747 611.988 83.3348 612.057 84.0258 612.126C84.0949 612.126 84.0949 612.126 84.164 612.126C85.0623 612.126 85.8224 611.435 85.8915 610.537C85.9606 609.638 85.2696 608.809 84.3022 608.74Z" fill="black"/>
<path d="M171.437 627.955C163.007 629.337 154.438 630.374 146.008 631.134C145.041 631.204 144.35 632.033 144.419 633.001C144.488 633.899 145.248 634.59 146.146 634.59C146.215 634.59 146.215 634.59 146.285 634.59C154.853 633.83 163.49 632.793 171.99 631.411C172.957 631.273 173.579 630.374 173.441 629.406C173.303 628.439 172.404 627.748 171.437 627.955Z" fill="black"/>
<path d="M132.119 632.034C129.839 632.172 127.559 632.241 125.278 632.31C124.311 632.31 123.551 633.14 123.62 634.107C123.62 635.075 124.449 635.766 125.348 635.766C125.348 635.766 125.348 635.766 125.417 635.766C127.697 635.697 130.046 635.628 132.327 635.49C133.294 635.421 134.054 634.66 133.985 633.693C133.847 632.725 133.018 631.965 132.119 632.034Z" fill="black"/>
<path d="M127.766 654.843C124.173 654.912 120.51 654.912 116.917 654.843C115.95 654.774 115.19 655.603 115.121 656.571C115.121 657.539 115.881 658.299 116.848 658.368C118.921 658.437 120.994 658.437 123.067 658.437C124.656 658.437 126.246 658.437 127.766 658.437C128.733 658.437 129.493 657.608 129.493 656.709C129.493 655.603 128.733 654.843 127.766 654.843Z" fill="black"/>
<path d="M141.379 654.359C139.513 654.428 137.578 654.567 135.643 654.636C134.676 654.705 133.916 655.465 133.985 656.433C133.985 657.401 134.814 658.092 135.712 658.092H135.781C137.716 658.023 139.651 657.954 141.517 657.815C142.484 657.746 143.175 656.917 143.175 656.018C143.175 655.051 142.346 654.359 141.379 654.359Z" fill="black"/>
<path d="M284.416 515.843C283.517 513.838 282.135 511.972 280.477 510.382C279.164 509.138 277.782 508.101 275.985 507.134C273.083 505.613 270.457 504.922 268.315 504.507C265.828 504.023 263.617 503.885 261.889 503.816C260.092 503.747 258.296 503.747 256.154 503.885C252.284 504.023 248.553 504.576 245.512 505.06C241.85 505.613 238.395 506.373 235.424 507.064C227.201 509 218.702 511.557 209.373 514.806C207.576 512.456 205.711 510.244 203.707 508.101C203.638 507.963 203.5 507.825 203.361 507.687C198.732 502.71 193.549 498.217 187.952 494.346C187.814 494.139 187.607 494.07 187.399 493.932C180.144 488.955 172.266 484.877 163.905 481.974C163.767 481.905 163.629 481.836 163.491 481.836C161.418 481.144 159.276 480.453 157.133 479.831C135.643 474.025 112.564 475.822 92.1794 484.808C84.7166 488.126 77.7375 492.342 71.3803 497.319C71.173 497.457 70.9657 497.595 70.8275 497.733C65.9905 501.604 61.499 505.889 57.4221 510.59C57.2839 510.728 57.1457 510.866 57.0766 511.004C52.5851 516.257 48.6464 522.063 45.3296 528.215C44.6386 529.528 43.8785 530.911 43.2566 532.293C40.4235 538.238 38.2123 544.458 36.623 550.748C36.623 550.817 36.5539 550.887 36.5539 550.887C36.4848 551.025 36.4848 551.163 36.4848 551.301C34.55 559.25 33.5826 567.406 33.7208 575.562C33.7208 575.77 33.7208 575.908 33.7208 576.115C33.859 583.511 34.7573 590.907 36.623 598.165C32.477 600.86 28.6765 603.418 25.0142 606.113C20.6609 609.293 14.9947 613.648 9.7431 618.901C7.7392 620.905 5.1825 623.67 2.9713 627.195C2.1421 628.577 1.1056 630.444 0.4146 632.932C0.1382 634.176 0 635.351 0 636.595C0 638.047 0.3455 639.498 0.8983 640.812C1.4511 642.125 2.2803 643.369 3.2477 644.406C4.0769 645.304 5.0443 645.996 6.2881 646.756C8.4993 648.069 10.5723 648.691 12.2307 649.106C15.4784 649.936 18.8643 650.35 23.0103 650.558C24.2541 650.627 25.4288 650.627 26.6726 650.627C32.7534 650.627 38.4196 650.143 43.2566 649.59C49.752 648.899 56.3856 647.931 62.881 646.756C63.6411 646.618 64.4012 646.48 65.1613 646.341C83.6801 663.483 107.451 672.469 131.705 672.469C145.041 672.469 158.515 669.704 171.299 664.105C179.107 660.649 186.294 656.295 192.789 651.111C192.858 651.111 192.858 651.041 192.927 651.041C213.865 634.384 227.27 609.639 229.481 582.198C234.802 578.811 239.57 575.631 243.923 572.59C250.28 568.028 255.463 564.158 260.023 560.356C262.926 557.937 265.413 555.725 267.832 553.444C270.803 550.61 273.221 548.122 275.433 545.633C276.884 543.975 278.058 542.523 279.095 541.071C280.546 539.136 281.652 537.408 282.619 535.542C283.656 533.607 284.83 531.118 285.59 527.87C286.005 525.865 286.143 524.137 286.074 522.34C285.867 520.128 285.314 517.847 284.416 515.843ZM47.679 530.911C54.4508 532.777 61.4299 534.298 68.409 535.473C68.4781 535.473 68.6163 535.473 68.6854 535.473C69.5146 535.473 70.2747 534.851 70.4129 534.021C70.5511 533.054 69.9292 532.155 68.9618 532.017C62.3282 530.911 55.7637 529.528 49.3374 527.8C52.1705 522.824 55.4182 518.124 59.1496 513.7C65.0231 515.082 71.0348 516.188 77.1156 516.949C77.1847 516.949 77.2538 516.949 77.3229 516.949C78.1521 516.949 78.9122 516.327 79.0504 515.428C79.1886 514.46 78.4976 513.631 77.5302 513.493C72.2095 512.801 66.9579 511.834 61.7754 510.728C65.0922 507.134 68.6854 503.747 72.555 500.636C77.2538 501.88 82.1599 502.917 86.9969 503.539C87.066 503.539 87.1351 503.539 87.2042 503.539C88.0334 503.539 88.7935 502.917 88.9317 502.019C89.0699 501.051 88.3789 500.222 87.4115 500.083C83.611 499.599 79.8105 498.908 76.0791 497.941C81.4689 494.07 87.3424 490.614 93.6305 487.849C115.121 478.38 138.407 477.412 159.414 483.84C157.617 485.015 155.821 486.121 153.955 487.158C153.126 487.642 152.849 488.679 153.264 489.508C153.609 490.061 154.162 490.407 154.784 490.407C155.06 490.407 155.337 490.337 155.613 490.199C158.308 488.679 161.003 487.02 163.56 485.292C170.539 487.78 177.242 491.098 183.461 495.245C177.933 498.217 172.128 500.913 166.116 503.263C165.218 503.608 164.804 504.645 165.149 505.475C165.425 506.166 166.047 506.581 166.738 506.581C166.946 506.581 167.153 506.511 167.36 506.442C174.063 503.816 180.558 500.775 186.639 497.457C191.2 500.775 195.553 504.507 199.561 508.654C195.829 511.004 191.891 513.216 187.883 515.221C187.054 515.635 186.708 516.672 187.123 517.571C187.399 518.193 188.021 518.538 188.643 518.538C188.919 518.538 189.196 518.469 189.403 518.331C193.756 516.119 197.972 513.769 201.91 511.212C203.776 513.285 205.573 515.497 207.3 517.778C209.926 521.234 212.275 524.967 214.348 528.768C214.348 528.768 214.348 528.837 214.417 528.837C214.625 529.252 214.901 529.736 215.108 530.151C209.926 533.399 204.398 536.51 198.663 539.274C197.833 539.689 197.419 540.726 197.833 541.555C198.11 542.177 198.732 542.523 199.423 542.523C199.699 542.523 199.906 542.454 200.183 542.385C205.987 539.62 211.515 536.51 216.698 533.261C217.181 534.298 217.665 535.335 218.149 536.371C220.567 541.832 222.433 547.431 223.746 553.167C220.084 555.448 216.421 557.591 212.828 559.596C208.198 562.291 202.947 565.194 196.451 568.719C191.476 571.415 186.155 574.18 179.798 577.498C177.794 578.535 175.79 579.571 173.786 580.539C162.385 582.682 150.638 584.202 138.96 585.032C137.993 585.101 137.302 585.93 137.371 586.898C137.44 587.797 138.2 588.488 139.098 588.488C139.167 588.488 139.167 588.488 139.237 588.488C147.252 587.935 155.268 587.036 163.214 585.861L163.007 585.999C157.548 588.695 151.813 591.46 145.939 594.156C133.57 599.893 122.307 605.008 111.458 609.777C111.389 609.846 111.32 609.846 111.182 609.915C105.447 609.915 99.7113 609.777 94.1142 609.431C93.1468 609.362 92.3176 610.122 92.3176 611.09C92.2485 612.058 93.0086 612.887 93.976 612.887C97.1546 613.025 100.333 613.164 103.512 613.233C100.195 614.684 97.0855 615.998 94.1142 617.242C87.4806 620.007 81.8835 622.287 76.5628 624.292C69.1691 627.126 62.5355 629.476 56.2474 631.411C51.8941 625.605 48.1627 619.315 45.2605 612.611C44.2931 610.399 43.3948 608.187 42.6347 605.837C51.2031 607.772 60.1861 609.431 69.3764 610.606C69.4455 610.606 69.5146 610.606 69.5837 610.606C70.4129 610.606 71.173 609.984 71.3112 609.086C71.4494 608.118 70.7584 607.288 69.791 607.15C59.9788 605.906 50.443 604.109 41.3218 601.966C41.3218 601.897 41.3218 601.897 41.2527 601.828C40.9072 600.722 40.5617 599.547 40.2853 598.372C38.4887 591.598 37.5213 584.755 37.2449 578.051C43.1184 579.779 49.1301 581.368 55.28 582.682C55.4182 582.682 55.5564 582.751 55.6255 582.751C56.4547 582.751 57.1457 582.198 57.2839 581.368C57.4912 580.401 56.8693 579.502 55.971 579.295C49.5447 577.912 43.1875 576.254 37.1067 574.387C37.1067 567.268 37.8668 560.287 39.387 553.444C40.5617 553.79 41.7364 554.135 42.9802 554.481C53.6907 557.453 64.8158 559.734 76.0791 561.116C76.1482 561.116 76.2173 561.116 76.2864 561.116C77.1156 561.116 77.8757 560.494 78.0139 559.596C78.1521 558.628 77.4611 557.799 76.4937 557.66C65.4377 556.278 54.4508 554.066 43.8785 551.163C42.7038 550.887 41.46 550.541 40.2162 550.126C42.0128 543.491 44.5004 537.063 47.679 530.911ZM226.924 551.232C225.542 545.703 223.746 540.173 221.396 534.92C220.705 533.33 219.945 531.74 219.116 530.151C219.047 530.012 219.047 529.874 218.909 529.805L218.84 529.736C218.771 529.528 218.632 529.39 218.563 529.183C219.116 529.114 219.669 528.975 220.222 528.906C226.303 527.87 232.522 526.971 238.671 526.349C245.927 525.589 251.455 525.381 256.223 525.589H256.292C257.328 525.658 257.743 526.487 257.812 526.695C257.881 526.971 258.158 527.87 257.467 528.561L257.19 528.837C255.532 530.496 253.459 532.362 250.971 534.436C248.898 536.095 246.618 537.892 243.923 539.827C239.155 543.283 234.042 546.739 228.721 549.988C228.237 550.472 227.546 550.887 226.924 551.232ZM38.696 605.215C39.6634 608.187 40.8381 611.159 42.0819 613.993C44.9841 620.56 48.5773 626.78 52.7233 632.517C48.5773 633.761 44.7077 634.798 40.8381 635.766C37.2449 636.595 34.4118 637.148 31.786 637.563C29.2984 637.978 26.0507 638.462 22.8721 638.6C19.4171 638.807 16.7913 638.669 14.5801 638.323C13.3363 638.116 12.2307 637.77 11.5397 637.425C11.056 637.148 10.7796 637.01 10.7105 636.941C10.5723 636.803 10.4341 636.664 10.365 636.595C10.2959 636.457 10.2959 636.319 10.2268 636.181C10.2268 635.973 10.2268 635.697 10.2959 635.144C10.4341 634.245 10.8487 633.139 11.4706 632.033C12.5762 629.96 14.1655 627.679 16.3767 625.121C19.8317 621.182 24.0468 617.104 29.7821 612.265C32.477 609.915 35.4483 607.634 38.696 605.215ZM190.854 648.277C179.384 650.488 167.706 652.216 156.028 653.322C155.06 653.391 154.369 654.29 154.439 655.189C154.508 656.087 155.268 656.778 156.166 656.778C156.235 656.778 156.304 656.778 156.304 656.778C165.702 655.88 175.099 654.636 184.428 652.977C179.867 656.018 174.961 658.783 169.779 661.064C141.517 673.505 109.662 671.294 83.8183 656.087C86.8587 656.433 89.8991 656.778 93.0086 657.055C98.4675 657.539 104.065 657.884 109.662 658.092H109.731C110.629 658.092 111.458 657.331 111.458 656.433C111.527 655.465 110.767 654.705 109.8 654.636C104.272 654.428 98.7439 654.083 93.3541 653.599C87.8261 653.115 82.3672 652.493 77.1156 651.733C74.4898 649.866 71.864 647.862 69.3764 645.65C73.7297 644.821 78.0139 643.922 82.1599 643.023C107.312 637.425 132.465 629.407 156.995 619.177C163.422 616.481 169.295 613.924 174.961 611.367C180.144 609.016 185.603 606.39 192.72 602.865C198.317 600.1 204.052 597.059 210.133 593.672C215.177 590.838 220.429 587.797 225.681 584.548C225.473 586.76 225.128 588.972 224.713 591.183C220.429 592.635 216.007 594.087 211.515 595.4C210.617 595.676 210.064 596.644 210.34 597.543C210.548 598.303 211.239 598.787 211.999 598.787C212.137 598.787 212.344 598.787 212.483 598.718C216.283 597.612 220.084 596.367 223.884 595.054C222.087 603.003 219.323 610.675 215.661 617.795C203.983 621.32 191.822 624.223 179.522 626.504C178.554 626.711 177.933 627.61 178.14 628.508C178.278 629.338 179.038 629.96 179.867 629.96C180.006 629.96 180.075 629.96 180.213 629.96C191.476 627.886 202.532 625.26 213.312 622.149C207.576 632.103 199.975 640.95 190.854 648.277ZM282.204 527.247C281.583 530.081 280.546 532.224 279.579 534.021C278.68 535.68 277.644 537.339 276.331 539.136C275.364 540.519 274.258 541.901 272.807 543.491C270.734 545.91 268.384 548.329 265.482 551.025C263.133 553.237 260.645 555.448 257.812 557.799C253.252 561.531 248.207 565.402 241.919 569.895C237.428 573.005 232.521 576.254 226.993 579.779C226.924 579.779 226.924 579.848 226.855 579.848L225.473 580.746C219.738 584.271 214.003 587.589 208.544 590.7C202.463 594.087 196.797 597.059 191.269 599.823C184.29 603.279 178.831 605.906 173.648 608.256C168.051 610.814 162.178 613.371 155.751 616.067C131.428 626.158 106.414 634.176 81.4689 639.706C76.2864 640.881 70.8966 641.987 65.3686 642.954C64.3321 643.162 63.2956 643.369 62.2591 643.507C55.8328 644.682 49.2683 645.581 42.842 646.272C37.1067 646.894 30.3349 647.447 23.0794 647.24C19.2098 647.102 15.9621 646.687 12.9908 645.927C11.6088 645.581 9.8122 645.028 8.0156 643.922C7.0482 643.3 6.3572 642.747 5.7353 642.125C5.0443 641.365 4.4224 640.466 4.0769 639.567C3.7314 638.669 3.5241 637.632 3.455 636.595C3.455 635.697 3.5932 634.798 3.8005 633.761C4.2151 632.241 4.9061 630.72 5.9426 628.992C7.9465 625.813 10.365 623.186 12.1616 621.32C17.275 616.205 22.803 611.989 27.0181 608.878C30.3349 606.459 33.7899 604.109 37.5213 601.621V601.69C33.859 604.455 30.5422 607.012 27.5018 609.5C21.7665 614.408 17.3441 618.624 13.82 622.702C11.4015 625.467 9.674 627.955 8.4302 630.305C7.6701 631.757 7.1173 633.208 6.91 634.453C6.7718 635.213 6.7718 635.835 6.8409 636.457C6.91 637.079 7.0482 637.563 7.3246 638.047C7.3246 638.116 7.3937 638.116 7.3937 638.185C7.6701 638.6 8.0156 639.015 8.4302 639.429C8.8448 639.775 9.3285 640.12 10.0195 640.466C11.1251 641.019 12.5071 641.434 14.0273 641.71C15.7548 641.987 17.6205 642.125 19.7626 642.125C20.7991 642.125 21.9047 642.125 23.0794 642.056C26.4653 641.918 29.7821 641.365 32.4079 640.95C35.1028 640.535 37.9359 639.913 41.6673 639.084C46.297 637.978 51.0649 636.664 56.1092 635.075C56.1092 635.075 56.1092 635.075 56.1783 635.075C62.881 633.001 69.9983 630.513 77.8757 627.471C83.1964 625.467 88.7935 623.186 95.4962 620.352C100.61 618.209 106.138 615.859 112.357 613.095C112.564 613.025 112.771 612.887 112.979 612.818C123.827 608.049 135.16 602.934 147.529 597.128C153.402 594.432 159.137 591.667 164.665 588.972L164.942 588.833C168.328 587.175 171.783 585.447 175.238 583.719C175.307 583.719 175.376 583.649 175.376 583.649C177.449 582.613 179.522 581.576 181.595 580.47C188.021 577.152 193.273 574.387 198.317 571.692C204.882 568.167 210.064 565.263 214.763 562.568C218.702 560.356 222.778 557.937 226.855 555.448C228.168 554.619 229.55 553.79 230.863 552.96C236.184 549.642 241.366 546.186 246.203 542.661C248.898 540.726 251.248 538.86 253.39 537.132C256.016 534.989 258.089 533.123 259.885 531.326L260.162 531.049C261.613 529.528 262.096 527.386 261.336 525.45C260.576 523.515 258.78 522.202 256.776 522.133C256.707 522.133 256.707 522.133 256.637 522.133C251.731 521.925 245.996 522.133 238.602 522.893C232.383 523.515 226.095 524.414 219.945 525.519C218.978 525.658 218.08 525.865 217.112 526.003C215.454 523.1 213.726 520.335 211.792 517.64C220.567 514.599 228.652 512.179 236.46 510.382C239.362 509.691 242.748 509 246.272 508.447C249.244 507.963 252.837 507.479 256.568 507.341C258.641 507.272 260.369 507.203 262.027 507.272C263.547 507.341 265.62 507.479 267.901 507.894C269.905 508.309 272.116 508.862 274.603 510.175C276.055 511.004 277.229 511.834 278.335 512.871C279.648 514.184 280.753 515.704 281.513 517.294C282.274 518.953 282.688 520.75 282.826 522.616C282.619 524.068 282.55 525.589 282.204 527.247Z" fill="black"/>
<path d="M43.4637 99.4639C43.4637 99.533 43.3946 99.6712 43.3946 99.7404C42.8418 102.574 42.5654 105.546 42.5654 108.519C42.5654 110.039 42.6345 111.56 42.7727 113.081C43.2564 117.85 44.362 122.481 46.0895 126.766C46.0895 126.905 46.1586 126.974 46.2277 127.112C48.7844 133.194 52.5158 138.655 57.1455 143.217C57.2837 143.424 57.4219 143.562 57.6292 143.701C66.3358 151.995 78.1519 157.11 91.0736 157.11C117.815 157.11 139.651 135.337 139.651 108.519C139.651 81.7 117.884 59.9272 91.0736 59.9272C78.5665 59.9272 67.2341 64.6274 58.5966 72.438C58.4584 72.5762 58.3202 72.6453 58.182 72.8527C53.7596 76.9308 50.0973 81.8383 47.4024 87.2988C47.3333 87.437 47.2642 87.5752 47.1951 87.7135C45.5367 91.3768 44.2238 95.3167 43.4637 99.4639ZM60.3241 75.6175H92.3865C93.3539 75.6175 94.114 74.8572 94.114 73.8895C94.114 72.9218 93.3539 72.1615 92.3865 72.1615H64.4701C71.9329 66.6319 81.1232 63.3832 91.1427 63.3832C116.019 63.3832 136.196 83.6354 136.196 108.449C136.196 133.333 115.95 153.516 91.1427 153.516C80.6395 153.516 70.9655 149.852 63.2954 143.839H79.9485C80.9159 143.839 81.676 143.079 81.676 142.111C81.676 141.143 80.9159 140.383 79.9485 140.383H59.3567C55.7635 136.789 52.7231 132.572 50.5119 127.941H78.7047C79.6721 127.941 80.4322 127.181 80.4322 126.213C80.4322 125.246 79.6721 124.485 78.7047 124.485H49.0608C47.8861 121.375 47.0569 118.126 46.5732 114.739H77.6682C78.6356 114.739 79.3957 113.979 79.3957 113.011C79.3957 112.044 78.6356 111.283 77.6682 111.283H46.1586C46.0895 110.316 46.0895 109.417 46.0895 108.449C46.0895 106.099 46.2968 103.818 46.6423 101.537H61.8443C62.8117 101.537 63.5718 100.777 63.5718 99.8095C63.5718 98.8418 62.7426 98.1506 61.8443 98.1506H47.3333C48.0243 95.3167 48.9226 92.5519 50.0973 89.9944H98.4673C99.4347 89.9944 100.195 89.2341 100.195 88.2664C100.195 87.2988 99.4347 86.5385 98.4673 86.5385H51.8248C54.1051 82.4604 56.9382 78.797 60.3241 75.6175Z" fill="black"/>
<path d="M96.3947 140.452H88.4482C87.4808 140.452 86.7207 141.212 86.7207 142.18C86.7207 143.148 87.4808 143.908 88.4482 143.908H96.3256C97.293 143.908 98.0531 143.148 98.0531 142.18C98.1222 141.212 97.3621 140.452 96.3947 140.452Z" fill="black"/>
<path d="M104.272 111.353H92.3867C91.4193 111.353 90.6592 112.113 90.6592 113.081C90.6592 114.048 91.4193 114.809 92.3867 114.809H104.272C105.239 114.809 105.999 114.048 105.999 113.081C105.999 112.113 105.239 111.353 104.272 111.353Z" fill="black"/>
<path d="M79.8796 98.1504H69.2382C68.2708 98.1504 67.5107 98.9107 67.5107 99.8784C67.5107 100.846 68.2708 101.606 69.2382 101.606H79.8796C80.847 101.606 81.6071 100.846 81.6071 99.8784C81.6071 98.9107 80.847 98.1504 79.8796 98.1504Z" fill="black"/>
<path d="M100.886 75.6176H106.552C107.52 75.6176 108.28 74.8573 108.28 73.8896C108.28 72.9219 107.52 72.1616 106.552 72.1616H100.886C99.9188 72.1616 99.1587 72.9219 99.1587 73.8896C99.1587 74.8573 99.9188 75.6176 100.886 75.6176Z" fill="black"/>
<path d="M186.777 59.236C212.552 61.3787 215.868 64.1435 222.364 89.2341C222.571 89.9944 223.262 90.5474 224.022 90.5474C224.091 90.5474 224.091 90.5474 224.16 90.5474C224.99 90.4782 225.681 89.787 225.75 88.9576C227.892 63.1758 230.656 59.8581 255.739 53.3608C256.568 53.1534 257.121 52.3931 257.052 51.5637C256.983 50.7342 256.292 50.043 255.463 49.9739C229.688 47.8312 226.372 45.0664 219.876 19.9758C219.669 19.1464 218.909 18.5934 218.08 18.6626C217.25 18.7317 216.559 19.4229 216.49 20.2523C214.348 46.0341 211.584 49.3518 186.501 55.8491C185.672 56.0565 185.119 56.8168 185.188 57.6462C185.326 58.5448 185.948 59.1669 186.777 59.236ZM218.978 29.6526C224.022 45.7576 229.343 50.2504 246.065 52.4622C229.965 57.508 225.473 62.8302 223.262 79.5573C218.218 63.4523 212.897 58.9595 196.175 56.7477C212.275 51.7019 216.767 46.3797 218.978 29.6526Z" fill="black"/>
<path d="M89.0697 314.911C88.8624 314.081 88.1023 313.528 87.2731 313.598C86.4439 313.667 85.7529 314.358 85.6838 315.187C83.2653 344.149 80.1558 347.881 52.0321 355.139C51.2029 355.346 50.6501 356.106 50.7192 356.936C50.7883 357.765 51.4793 358.456 52.3085 358.526C81.2614 360.945 84.9928 364.055 92.2483 392.187C92.4556 392.947 93.1466 393.5 93.9067 393.5C93.9758 393.5 93.9758 393.5 94.0449 393.5C94.8741 393.431 95.5651 392.74 95.6342 391.911C98.0527 362.949 101.162 359.217 129.286 351.959C130.115 351.752 130.668 350.992 130.599 350.162C130.53 349.333 129.839 348.641 129.009 348.572C100.057 346.222 96.3252 343.043 89.0697 314.911ZM93.1466 382.441C87.4113 363.502 81.4687 358.526 61.8443 356.037C80.7777 350.3 85.7529 344.356 88.2405 324.726C93.9758 343.665 99.9184 348.641 119.543 351.13C100.609 356.867 95.5651 362.811 93.1466 382.441Z" fill="black"/>
<path d="M353.585 574.733C331.266 572.867 328.363 570.448 322.766 548.744C322.559 547.914 321.799 547.362 320.97 547.431C320.14 547.5 319.449 548.191 319.38 549.02C317.515 571.346 315.096 574.249 293.399 579.848C292.57 580.055 292.017 580.816 292.086 581.645C292.155 582.474 292.846 583.166 293.675 583.235C315.994 585.101 318.897 587.52 324.494 609.224C324.701 609.984 325.392 610.537 326.152 610.537C326.221 610.537 326.221 610.537 326.29 610.537C327.12 610.468 327.811 609.777 327.88 608.947C329.745 586.622 332.164 583.719 353.861 578.12C354.69 577.913 355.243 577.152 355.174 576.323C355.105 575.493 354.414 574.802 353.585 574.733ZM325.392 599.824C321.177 586.829 316.34 582.751 302.796 580.746C315.787 576.53 319.864 571.692 321.868 558.144C326.083 571.139 330.92 575.217 344.464 577.221C331.473 581.507 327.396 586.345 325.392 599.824Z" fill="black"/>
<path d="M127.835 242.058C127.628 241.091 126.729 240.538 125.762 240.745C124.795 240.952 124.242 241.851 124.449 242.819L128.111 259.96L113.393 250.422C112.564 249.869 111.527 250.145 110.975 250.906C110.422 251.735 110.698 252.772 111.458 253.325L126.177 262.863L109.04 266.527C108.072 266.734 107.52 267.633 107.727 268.6C107.934 269.43 108.625 269.983 109.385 269.983C109.524 269.983 109.593 269.983 109.731 269.914L126.868 266.25L117.332 280.973C116.779 281.802 117.055 282.839 117.816 283.392C118.092 283.599 118.437 283.669 118.783 283.669C119.336 283.669 119.889 283.392 120.234 282.908L129.77 268.186L133.432 285.327C133.639 286.157 134.33 286.71 135.091 286.71C135.229 286.71 135.298 286.71 135.436 286.641C136.403 286.433 136.956 285.535 136.749 284.567L133.087 267.425L147.805 276.964C148.081 277.171 148.427 277.24 148.772 277.24C149.325 277.24 149.878 276.964 150.223 276.48C150.776 275.651 150.5 274.614 149.74 274.061L135.021 264.522L152.158 260.859C153.126 260.652 153.678 259.753 153.471 258.785C153.264 257.818 152.366 257.265 151.398 257.472L134.261 261.135L143.797 246.413C144.35 245.583 144.074 244.547 143.313 243.994C142.484 243.441 141.448 243.717 140.895 244.477L131.359 259.2L127.835 242.058Z" fill="black"/>
<path d="M375.766 46.103C375.904 46.103 375.973 46.103 376.111 46.0339L385.232 44.0986L380.188 51.9091C379.635 52.7386 379.912 53.7754 380.672 54.3283C380.948 54.5357 381.294 54.6048 381.639 54.6048C382.192 54.6048 382.745 54.3283 383.09 53.8445L388.135 46.0339L390.069 55.1578C390.277 55.9872 390.968 56.5402 391.728 56.5402C391.866 56.5402 391.935 56.5402 392.073 56.471C393.041 56.2637 393.594 55.3651 393.386 54.3974L391.451 45.2736L399.26 50.3194C399.536 50.5267 399.882 50.5958 400.227 50.5958C400.78 50.5958 401.333 50.3194 401.678 49.8355C402.231 49.0061 401.955 47.9693 401.195 47.4163L393.386 42.3706L402.507 40.4352C403.475 40.2278 404.028 39.3293 403.82 38.3616C403.613 37.3939 402.715 36.841 401.747 37.0483L392.626 38.9837L397.67 31.1731C398.223 30.3437 397.947 29.3069 397.187 28.7539C396.358 28.201 395.321 28.4774 394.768 29.2378L389.724 37.0483L387.789 27.9245C387.582 26.9568 386.684 26.4038 385.716 26.6112C384.749 26.8186 384.196 27.7171 384.403 28.6848L386.338 37.8086L378.53 32.7629C377.701 32.2099 376.664 32.4864 376.111 33.2467C375.558 34.0762 375.835 35.113 376.595 35.6659L384.403 40.7117L375.282 42.647C374.315 42.8544 373.762 43.753 373.969 44.7206C374.246 45.5501 375.006 46.103 375.766 46.103Z" fill="black"/>
<path d="M282.274 78.4515C282.412 78.4515 282.481 78.4514 282.619 78.3823L296.785 75.341L288.907 87.5062C288.355 88.3356 288.631 89.3724 289.391 89.9254C289.667 90.1327 290.013 90.2019 290.358 90.2019C290.911 90.2019 291.464 89.9254 291.81 89.4415L299.687 77.2764L302.727 91.446C302.935 92.2754 303.626 92.8284 304.386 92.8284C304.524 92.8284 304.593 92.8284 304.731 92.7593C305.699 92.5519 306.251 91.6534 306.044 90.6857L303.004 76.5161L315.165 84.3958C315.442 84.6031 315.787 84.6722 316.133 84.6722C316.686 84.6722 317.238 84.3958 317.584 83.9119C318.137 83.0825 317.86 82.0457 317.1 81.4927L304.939 73.613L319.104 70.5718C320.071 70.3644 320.624 69.4658 320.417 68.4982C320.21 67.5305 319.311 66.9775 318.344 67.1849L304.178 70.2262L312.056 58.061C312.609 57.2316 312.332 56.1948 311.572 55.6418C310.743 55.0889 309.706 55.3654 309.154 56.1257L301.345 68.429L298.305 54.2594C298.098 53.2918 297.199 52.7388 296.232 52.9462C295.265 53.1535 294.712 54.0521 294.919 55.0198L297.959 69.1202L285.798 61.2406C284.969 60.6876 283.932 60.9641 283.379 61.7244C282.827 62.5539 283.103 63.5906 283.863 64.1436L296.025 72.0233L281.859 75.0646C280.892 75.2719 280.339 76.1705 280.546 77.1382C280.754 77.8985 281.514 78.4515 282.274 78.4515Z" fill="black"/>
</g>
</svg>
