<svg width="485" height="582" viewBox="0 0 485 582" fill="none" xmlns="http://www.w3.org/2000/svg">
<g opacity="0.2" clip-path="url(#clip0_12_2535)">
<path d="M108.789 85.2587L125.35 221.612C125.367 221.645 125.367 221.645 125.351 221.695C125.368 221.728 125.368 221.811 125.385 221.844C125.402 221.877 125.418 221.91 125.435 221.943C125.452 221.976 125.485 222.042 125.502 222.075C125.519 222.108 125.536 222.141 125.552 222.174C125.569 222.207 125.603 222.273 125.653 222.29C125.669 222.323 125.669 222.323 125.719 222.339C125.736 222.372 125.803 222.421 125.82 222.455C125.836 222.488 125.869 222.471 125.886 222.504C125.936 222.52 125.97 222.586 126.019 222.603C126.036 222.636 126.069 222.619 126.086 222.652C126.136 222.668 126.153 222.701 126.203 222.718L189.272 243.274C189.621 243.387 189.97 243.336 190.234 243.201C190.3 243.168 190.334 243.151 190.4 243.117C190.433 243.101 190.433 243.101 190.466 243.084C190.499 243.067 190.549 243 190.582 242.984C190.615 242.967 190.648 242.95 190.631 242.917C190.631 242.917 190.631 242.917 190.664 242.9C190.714 242.833 190.796 242.75 190.829 242.65C190.845 242.6 190.878 242.584 190.861 242.551L190.878 242.501L211.532 179.436C211.565 179.336 211.581 179.286 211.581 179.203C211.58 179.12 211.58 179.037 211.579 178.954C211.561 178.673 211.444 178.441 211.293 178.227L211.277 178.193C211.243 178.127 211.176 178.078 211.11 178.029L110.941 84.1674C110.941 84.1674 110.941 84.1674 110.924 84.1343C110.841 84.0519 110.741 84.0194 110.657 83.937C110.641 83.9039 110.607 83.9207 110.558 83.9044C110.458 83.8719 110.391 83.8225 110.275 83.8398L110.225 83.8235C110.126 83.791 110.01 83.8083 109.893 83.8256C109.86 83.8424 109.81 83.8261 109.81 83.8261C109.711 83.8765 109.595 83.8938 109.529 83.9274C109.529 83.9274 109.529 83.9273 109.496 83.9441C109.496 83.9441 109.496 83.9441 109.463 83.9609C109.363 84.0113 109.281 84.0947 109.182 84.1451C109.148 84.1619 109.115 84.1787 109.132 84.2117C109.05 84.2952 108.967 84.3786 108.934 84.4783C108.934 84.4783 108.901 84.4951 108.918 84.5282C108.885 84.6279 108.853 84.7276 108.82 84.8273C108.837 84.8603 108.804 84.8771 108.821 84.9102C108.788 85.0099 108.788 85.0928 108.789 85.2587ZM114.495 91.0113L208.844 179.386L189.414 238.712L114.495 91.0113ZM187.163 239.854L127.817 220.485L112.245 92.1529L187.163 239.854Z" fill="black"/>
<path d="M277.884 413.295L261.34 277.058L261.356 277.008C261.34 276.975 261.356 276.925 261.339 276.892C261.322 276.859 261.339 276.809 261.322 276.776C261.289 276.71 261.288 276.627 261.238 276.528C261.204 276.462 261.171 276.396 261.087 276.313C261.07 276.28 261.021 276.264 261.004 276.231C260.987 276.198 260.937 276.182 260.92 276.149C260.904 276.115 260.854 276.099 260.804 276.083C260.787 276.05 260.737 276.034 260.72 276.001C260.654 275.951 260.554 275.919 260.504 275.902L197.434 255.263C197.384 255.247 197.384 255.247 197.351 255.264C197.301 255.248 197.301 255.248 197.251 255.231C197.152 255.199 197.036 255.216 196.953 255.217C196.837 255.234 196.721 255.251 196.621 255.302C196.588 255.318 196.588 255.318 196.555 255.335C196.456 255.386 196.356 255.436 196.257 255.486C196.175 255.57 196.125 255.636 196.043 255.72C196.01 255.737 196.026 255.77 195.993 255.786C195.911 255.87 195.878 255.97 195.845 256.069L175.158 319.151C175.142 319.201 175.158 319.234 175.142 319.284C175.126 319.334 175.126 319.334 175.109 319.384C175.093 319.433 175.077 319.483 175.11 319.549C175.127 319.582 175.094 319.599 175.111 319.632C175.094 319.682 175.128 319.748 175.145 319.781C175.161 319.814 175.145 319.864 175.145 319.864C175.162 319.897 175.195 319.963 175.179 320.013C175.196 320.046 175.213 320.079 175.229 320.113C175.246 320.146 175.28 320.212 175.296 320.245C175.313 320.278 175.33 320.311 175.347 320.344C175.364 320.377 175.43 320.426 175.447 320.459C175.464 320.493 175.464 320.492 175.481 320.526L275.749 414.419C275.749 414.419 275.749 414.419 275.766 414.452C275.85 414.535 275.966 414.601 276.033 414.65C276.049 414.683 276.083 414.666 276.099 414.699C276.199 414.732 276.299 414.764 276.399 414.797L276.448 414.813C276.548 414.846 276.664 414.828 276.78 414.811C276.813 414.794 276.863 414.811 276.863 414.811C276.979 414.793 277.046 414.76 277.145 414.709L277.178 414.692L277.211 414.676C277.31 414.625 277.393 414.542 277.459 414.508C277.492 414.492 277.525 414.475 277.542 414.425C277.624 414.341 277.674 414.275 277.739 414.158C277.772 414.142 277.756 414.108 277.756 414.108C277.788 414.009 277.838 413.942 277.837 413.859C277.854 413.809 277.854 413.809 277.87 413.759C277.885 413.544 277.918 413.444 277.884 413.295ZM199.576 258.667L258.923 278.035L274.495 406.367L199.576 258.667ZM272.178 407.542L177.83 319.168L197.26 259.842L272.178 407.542Z" fill="black"/>
<path d="M358.97 166.136L358.986 166.086C359.019 165.986 359.002 165.87 358.984 165.754C358.968 165.721 358.984 165.671 358.967 165.638C358.95 165.522 358.916 165.456 358.866 165.357L358.849 165.324L358.832 165.291C358.782 165.192 358.699 165.109 358.665 165.043C358.648 165.01 358.632 164.977 358.599 164.994C358.515 164.911 358.449 164.862 358.332 164.796L358.282 164.78C358.182 164.748 358.116 164.698 357.983 164.682C357.95 164.699 357.933 164.666 357.9 164.683C357.8 164.65 357.684 164.668 357.568 164.685C357.568 164.685 357.568 164.685 357.535 164.702L221.084 181.284C221.051 181.301 221.051 181.301 221.018 181.317C220.985 181.334 220.902 181.335 220.869 181.352C220.836 181.368 220.803 181.385 220.803 181.385C220.769 181.402 220.703 181.435 220.67 181.452C220.637 181.469 220.604 181.486 220.604 181.486C220.571 181.503 220.505 181.536 220.488 181.586C220.455 181.603 220.455 181.603 220.439 181.653C220.406 181.669 220.356 181.736 220.34 181.786C220.307 181.803 220.324 181.836 220.291 181.853C220.274 181.902 220.208 181.936 220.192 181.986C220.159 182.003 220.175 182.036 220.159 182.086C220.143 182.135 220.11 182.152 220.093 182.202L199.372 245.218C199.34 245.317 199.324 245.45 199.324 245.533C199.341 245.566 199.308 245.583 199.325 245.616C199.342 245.732 199.342 245.815 199.359 245.931C199.377 246.047 199.427 246.146 199.51 246.229C199.527 246.262 199.527 246.262 199.544 246.295C199.594 246.394 199.678 246.476 199.761 246.559C199.845 246.641 199.944 246.674 200.011 246.723C200.028 246.756 200.061 246.739 200.111 246.756C200.127 246.789 200.16 246.772 200.177 246.805L263.264 267.394C263.613 267.508 263.961 267.456 264.226 267.322C264.391 267.238 264.54 267.121 264.639 266.987L358.592 166.785C358.592 166.785 358.592 166.785 358.625 166.768C358.707 166.685 358.74 166.585 358.822 166.501C358.839 166.452 358.839 166.452 358.855 166.402C358.921 166.285 358.937 166.235 358.97 166.136ZM263.283 264.724L203.936 245.355L351.79 170.359L263.283 264.724ZM222.192 183.715L350.616 168.045L202.762 243.041L222.192 183.715Z" fill="black"/>
<path d="M29.1555 333.885L165.49 317.237C165.689 317.219 165.888 317.202 166.053 317.118C166.351 316.967 166.599 316.716 166.68 316.384L187.335 253.319C187.351 253.269 187.334 253.236 187.367 253.219C187.367 253.219 187.367 253.219 187.383 253.169C187.432 252.937 187.431 252.688 187.313 252.457L187.297 252.424C187.196 252.225 187.062 252.044 186.862 251.896C186.845 251.863 186.812 251.879 186.796 251.846C186.712 251.764 186.612 251.731 186.513 251.699L123.443 231.143C123.393 231.127 123.36 231.143 123.31 231.127C123.26 231.111 123.26 231.111 123.211 231.095C123.161 231.078 123.078 231.079 123.045 231.096C123.011 231.112 122.995 231.079 122.962 231.096C122.912 231.08 122.846 231.113 122.812 231.13C122.779 231.147 122.779 231.147 122.729 231.131C122.696 231.147 122.63 231.181 122.58 231.165C122.547 231.182 122.514 231.198 122.514 231.198C122.481 231.215 122.415 231.249 122.382 231.265C122.349 231.282 122.316 231.299 122.282 231.316C122.249 231.333 122.2 231.399 122.167 231.416C122.134 231.433 122.134 231.433 122.101 231.45L28.0653 331.736C28.0653 331.736 28.0653 331.736 28.0322 331.752C27.9497 331.836 27.8839 331.952 27.8345 332.019C27.8014 332.036 27.8182 332.069 27.7851 332.086C27.7524 332.185 27.7198 332.285 27.6871 332.385L27.6708 332.435C27.6381 332.534 27.6553 332.65 27.6726 332.766C27.6893 332.799 27.7061 332.832 27.673 332.849C27.7732 332.965 27.7904 333.081 27.8407 333.18C27.8407 333.18 27.8407 333.18 27.8575 333.213C27.8575 333.213 27.8575 333.213 27.8743 333.246C27.9246 333.345 28.008 333.428 28.0415 333.494C28.0583 333.527 28.0751 333.56 28.1082 333.543C28.1916 333.626 28.2582 333.675 28.3747 333.74L28.4246 333.757C28.5243 333.789 28.591 333.839 28.6907 333.871C28.7406 333.887 28.7406 333.887 28.7905 333.904C28.9065 333.886 29.0063 333.919 29.1555 333.885C29.1224 333.902 29.1224 333.902 29.1555 333.885ZM164.514 314.822L36.0736 330.459L183.928 255.463L164.514 314.822ZM34.9164 328.177L123.424 233.813L182.77 253.181L34.9164 328.177Z" fill="black"/>
<path d="M187.955 142.797C187.971 142.83 187.988 142.863 188.005 142.896C188.022 142.929 188.071 142.946 188.105 143.012C188.122 143.045 188.122 143.045 188.172 143.061L218.348 172.279C218.348 172.279 218.348 172.279 218.364 172.312C218.381 172.345 218.431 172.361 218.431 172.361C218.448 172.394 218.498 172.41 218.547 172.427C218.597 172.443 218.614 172.476 218.664 172.492C218.664 172.492 218.681 172.525 218.714 172.509C218.731 172.542 218.764 172.525 218.78 172.558C218.797 172.591 218.83 172.574 218.847 172.607C218.847 172.607 218.847 172.607 218.897 172.623C218.947 172.64 218.997 172.656 219.03 172.639L219.08 172.655L219.13 172.672C219.179 172.688 219.213 172.671 219.262 172.688C219.312 172.704 219.345 172.687 219.395 172.703L219.428 172.687L261.066 166.907C261.099 166.89 261.149 166.906 261.182 166.889C261.215 166.872 261.215 166.872 261.249 166.856C261.315 166.822 261.398 166.822 261.464 166.788L261.497 166.771C261.596 166.721 261.646 166.654 261.745 166.604C261.778 166.587 261.811 166.57 261.828 166.52L261.861 166.504C261.91 166.437 261.959 166.37 262.009 166.304C262.025 166.254 262.025 166.254 262.042 166.204C262.058 166.154 262.074 166.104 262.107 166.087C262.124 166.038 262.124 166.038 262.14 165.988C262.156 165.938 262.173 165.888 262.156 165.855C262.156 165.855 262.139 165.822 262.172 165.805C262.188 165.755 262.172 165.722 262.171 165.639C262.155 165.606 262.171 165.556 262.154 165.523L258.707 54.8612C258.707 54.8612 258.707 54.8612 258.691 54.8281C258.707 54.7783 258.69 54.7452 258.707 54.6954C258.69 54.6623 258.706 54.6124 258.689 54.5794C258.673 54.5463 258.689 54.4964 258.672 54.4634C258.655 54.4303 258.672 54.3805 258.655 54.3474C258.638 54.3143 258.605 54.2482 258.588 54.2151C258.571 54.1821 258.554 54.149 258.537 54.116C258.521 54.0829 258.487 54.0168 258.47 53.9837C258.454 53.9506 258.437 53.9176 258.42 53.8845C258.403 53.8514 258.353 53.8351 258.32 53.769C258.303 53.736 258.253 53.7197 258.236 53.6866L258.22 53.6536C258.203 53.6205 258.153 53.6042 258.153 53.6042C258.153 53.6042 258.153 53.6042 258.136 53.5711L258.086 53.5549C258.037 53.5386 258.02 53.5055 257.97 53.4893C257.92 53.473 257.92 53.473 257.87 53.4567C257.82 53.4404 257.82 53.4404 257.787 53.4572C257.737 53.4409 257.704 53.4577 257.654 53.4415C257.621 53.4582 257.605 53.4252 257.571 53.442L257.538 53.4587C257.505 53.4755 257.488 53.4425 257.455 53.4593L257.422 53.4761C257.389 53.4928 257.339 53.4766 257.306 53.4934C257.273 53.5101 257.223 53.4939 257.19 53.5107C257.157 53.5275 257.124 53.5442 257.041 53.5447C257.008 53.5615 256.975 53.5783 256.942 53.5951C256.909 53.6119 256.842 53.6455 256.809 53.6623C256.776 53.6791 256.743 53.6958 256.743 53.6958C256.71 53.7126 256.661 53.7793 256.627 53.7961C256.594 53.8129 256.594 53.8129 256.578 53.8627C256.562 53.9126 256.495 53.9461 256.479 53.996C256.446 54.0128 256.463 54.0459 256.43 54.0626C256.43 54.0626 256.397 54.0794 256.413 54.1125L188.146 141.287C188.112 141.304 188.096 141.354 188.08 141.403C188.047 141.42 188.03 141.47 188.014 141.52C187.998 141.57 187.965 141.587 187.981 141.62C187.965 141.669 187.949 141.719 187.916 141.736C187.916 141.736 187.916 141.736 187.899 141.786C187.883 141.836 187.883 141.836 187.9 141.869C187.883 141.919 187.867 141.969 187.884 142.002C187.868 142.051 187.884 142.085 187.868 142.134C187.852 142.184 187.868 142.217 187.852 142.267C187.869 142.3 187.853 142.35 187.869 142.383C187.886 142.416 187.87 142.466 187.887 142.499C187.903 142.532 187.92 142.565 187.904 142.615C187.921 142.648 187.937 142.681 187.954 142.714C187.921 142.731 187.938 142.764 187.955 142.797ZM259.51 164.495L221.073 169.857L256.373 62.1561L259.51 164.495ZM218.645 169.01L190.805 142.017L253.929 61.2757L218.645 169.01Z" fill="black"/>
<path d="M-2.58111 186.73C-2.56434 186.763 -2.54757 186.796 -2.5308 186.829C-2.51403 186.862 -2.46416 186.879 -2.44739 186.912C-2.43061 186.945 -2.38074 186.961 -2.36397 186.994C-2.3472 187.027 -2.29733 187.044 -2.24746 187.06C-2.23069 187.093 -2.18082 187.109 -2.16405 187.142L-2.14727 187.175L85.0561 255.229C85.1395 255.311 85.256 255.377 85.3227 255.426C85.3394 255.459 85.3725 255.442 85.3893 255.475C85.4392 255.492 85.4559 255.525 85.5058 255.541C85.5557 255.557 85.6056 255.574 85.6885 255.573L85.7384 255.589C85.8712 255.605 85.9542 255.605 86.0703 255.587C86.1034 255.571 86.1034 255.571 86.1532 255.587C86.2693 255.569 86.3686 255.519 86.4679 255.469C86.5341 255.435 86.6003 255.402 86.6497 255.335C86.6828 255.318 86.6828 255.318 86.7159 255.301C86.749 255.285 86.7821 255.268 86.7985 255.218L116.059 225.036L116.092 225.019C116.125 225.003 116.141 224.953 116.158 224.903C116.191 224.886 116.207 224.836 116.24 224.819L116.257 224.77L116.273 224.72C116.289 224.67 116.306 224.62 116.339 224.603C116.339 224.603 116.339 224.603 116.355 224.553C116.371 224.503 116.371 224.503 116.355 224.47C116.338 224.437 116.371 224.421 116.354 224.387C116.354 224.387 116.337 224.354 116.371 224.338C116.387 224.288 116.37 224.255 116.386 224.205C116.403 224.155 116.386 224.122 116.402 224.072C116.386 224.039 116.402 223.989 116.402 223.989C116.402 223.989 116.402 223.989 116.385 223.956L110.636 182.349C110.62 182.315 110.603 182.282 110.636 182.266C110.619 182.233 110.635 182.183 110.619 182.15C110.602 182.117 110.568 182.05 110.552 182.017C110.535 181.984 110.518 181.951 110.518 181.951C110.485 181.885 110.468 181.852 110.451 181.819C110.434 181.786 110.434 181.786 110.417 181.753C110.384 181.687 110.334 181.67 110.3 181.604L110.284 181.571C110.284 181.571 110.284 181.571 110.267 181.538C110.2 181.489 110.15 181.473 110.117 181.406C110.117 181.406 110.1 181.373 110.067 181.39C110 181.341 109.951 181.325 109.851 181.292C109.851 181.292 109.851 181.292 109.834 181.259C109.784 181.243 109.684 181.21 109.601 181.211C109.518 181.211 109.469 181.195 109.386 181.195L109.353 181.212L-1.33045 184.766L-1.36355 184.782C-1.39665 184.799 -1.44652 184.783 -1.44652 184.783C-1.49639 184.767 -1.52949 184.783 -1.61246 184.784C-1.64556 184.801 -1.67866 184.817 -1.69543 184.784C-1.72853 184.801 -1.8115 184.802 -1.8446 184.818C-1.87769 184.835 -1.91079 184.852 -1.94389 184.869C-1.97699 184.886 -2.04319 184.919 -2.07629 184.936C-2.10939 184.953 -2.14249 184.97 -2.17559 184.986C-2.20868 185.003 -2.27488 185.037 -2.29121 185.087C-2.32431 185.103 -2.34064 185.153 -2.37374 185.17C-2.40684 185.187 -2.42317 185.237 -2.48936 185.27L-2.52246 185.287C-2.55556 185.304 -2.53879 185.337 -2.57189 185.354C-2.58822 185.404 -2.62132 185.42 -2.63764 185.47C-2.65397 185.52 -2.68707 185.537 -2.7034 185.587C-2.7365 185.603 -2.71972 185.637 -2.75282 185.653C-2.76915 185.703 -2.76915 185.703 -2.78548 185.753C-2.80181 185.803 -2.78503 185.836 -2.81813 185.853C-2.80136 185.886 -2.83446 185.903 -2.81769 185.936L-2.80092 185.969C-2.78415 186.002 -2.81725 186.019 -2.80048 186.052L-2.78371 186.085C-2.76693 186.118 -2.78326 186.168 -2.76649 186.201C-2.74972 186.234 -2.76604 186.284 -2.74927 186.317C-2.7325 186.35 -2.71573 186.383 -2.69896 186.416C-2.68219 186.449 -2.66542 186.482 -2.63187 186.548C-2.61466 186.664 -2.59789 186.697 -2.58111 186.73ZM85.8385 252.587L5.10074 189.568L112.854 224.708L85.8385 252.587ZM113.655 222.265L5.91712 187.076L108.338 183.889L113.655 222.265Z" fill="black"/>
<path d="M389.271 311.857C389.255 311.824 389.221 311.758 389.204 311.725C389.188 311.691 389.171 311.658 389.121 311.642C389.104 311.609 389.054 311.593 389.038 311.56C389.021 311.527 388.971 311.51 388.954 311.477C388.904 311.461 388.887 311.428 388.838 311.412C388.838 311.412 388.838 311.412 388.821 311.379L301.617 243.325C301.617 243.325 301.617 243.325 301.601 243.292C301.584 243.259 301.534 243.243 301.484 243.227C301.434 243.21 301.418 243.177 301.368 243.161C301.318 243.145 301.301 243.112 301.251 243.095C301.201 243.079 301.151 243.063 301.135 243.03L301.085 243.013L301.035 242.997C300.985 242.981 300.952 242.998 300.902 242.981C300.852 242.965 300.819 242.982 300.769 242.966C300.719 242.949 300.686 242.966 300.653 242.983C300.62 243 300.57 242.983 300.537 243C300.504 243.017 300.454 243.001 300.421 243.018C300.388 243.034 300.355 243.051 300.305 243.035C300.272 243.052 300.239 243.068 300.206 243.085C300.173 243.102 300.139 243.119 300.106 243.136C300.073 243.152 300.04 243.169 300.007 243.186C299.974 243.203 299.958 243.253 299.891 243.286C299.858 243.303 299.858 243.303 299.825 243.32L270.581 273.535C270.581 273.535 270.581 273.535 270.548 273.551C270.515 273.568 270.532 273.601 270.499 273.618C270.466 273.635 270.483 273.668 270.45 273.685C270.416 273.701 270.433 273.735 270.4 273.751C270.367 273.768 270.384 273.801 270.351 273.818C270.318 273.835 270.334 273.868 270.318 273.918C270.302 273.968 270.302 273.968 270.285 274.017C270.285 274.017 270.285 274.017 270.269 274.067C270.269 274.067 270.269 274.067 270.253 274.117C270.236 274.167 270.236 274.167 270.22 274.217C270.204 274.267 270.204 274.267 270.187 274.317C270.204 274.35 270.171 274.366 270.188 274.399C270.205 274.432 270.172 274.449 270.188 274.482C270.205 274.515 270.172 274.532 270.189 274.565C270.205 274.598 270.172 274.615 270.189 274.648L270.206 274.681L275.987 316.189C276.004 316.222 276.004 316.222 276.021 316.255C276.038 316.288 276.021 316.338 276.038 316.371C276.055 316.404 276.055 316.404 276.072 316.437C276.088 316.47 276.105 316.503 276.105 316.503C276.122 316.537 276.139 316.57 276.139 316.57C276.155 316.603 276.155 316.603 276.172 316.636C276.189 316.669 276.206 316.702 276.223 316.735C276.239 316.768 276.239 316.768 276.256 316.801L276.273 316.834C276.29 316.867 276.34 316.883 276.356 316.917C276.373 316.95 276.373 316.95 276.423 316.966C276.423 316.966 276.423 316.966 276.44 316.999L276.456 317.032C276.473 317.065 276.523 317.081 276.573 317.098L276.623 317.114L276.673 317.13C276.723 317.146 276.772 317.163 276.789 317.196C276.789 317.196 276.789 317.196 276.806 317.229C276.856 317.245 276.956 317.278 277.039 317.277L277.088 317.293C277.171 317.293 277.221 317.309 277.304 317.309C277.304 317.309 277.337 317.292 277.354 317.325L277.387 317.308L388.021 313.821C388.021 313.821 388.021 313.821 388.054 313.805L388.087 313.788C388.17 313.787 388.286 313.77 388.369 313.77C388.402 313.753 388.402 313.753 388.452 313.769C388.568 313.752 388.667 313.701 388.767 313.651C388.833 313.617 388.899 313.584 388.948 313.517C388.982 313.5 389.015 313.484 388.998 313.451C389.031 313.434 389.08 313.367 389.113 313.35L389.147 313.334C389.18 313.317 389.196 313.267 389.196 313.267C389.212 313.217 389.245 313.2 389.262 313.15C389.278 313.101 389.294 313.051 389.311 313.001L389.327 312.951L389.343 312.901L389.36 312.851C389.36 312.851 389.343 312.818 389.376 312.801C389.392 312.752 389.409 312.702 389.392 312.669C389.392 312.669 389.392 312.669 389.375 312.636C389.358 312.603 389.391 312.586 389.375 312.553L389.391 312.503L389.374 312.47C389.358 312.437 389.374 312.387 389.357 312.354C389.34 312.321 389.357 312.271 389.323 312.205C389.306 312.172 389.29 312.139 389.273 312.106C389.256 312.072 389.222 312.006 389.206 311.973C389.321 311.873 389.271 311.857 389.271 311.857ZM300.835 245.967L381.573 308.986L273.852 273.83L300.835 245.967ZM273.052 276.272L380.79 311.461L278.352 314.698L273.052 276.272Z" fill="black"/>
<path d="M198.736 355.706C198.719 355.673 198.702 355.64 198.685 355.607C198.668 355.574 198.652 355.54 198.585 355.491C198.568 355.458 198.568 355.458 198.551 355.425L168.376 326.208L168.359 326.175C168.342 326.141 168.309 326.158 168.292 326.125C168.275 326.092 168.226 326.076 168.226 326.076C168.209 326.043 168.176 326.06 168.159 326.027C168.142 325.993 168.109 326.01 168.092 325.977C168.075 325.944 168.042 325.961 167.993 325.945C167.943 325.928 167.943 325.928 167.893 325.912C167.893 325.912 167.893 325.912 167.843 325.896C167.843 325.896 167.843 325.896 167.793 325.88C167.743 325.863 167.743 325.863 167.693 325.847C167.643 325.831 167.643 325.831 167.594 325.814C167.56 325.831 167.544 325.798 167.511 325.815C167.477 325.832 167.461 325.799 167.428 325.815C167.395 325.832 167.345 325.816 167.345 325.816C167.312 325.833 167.295 325.8 167.262 325.816C167.262 325.816 167.262 325.816 167.229 325.833L125.591 331.613C125.558 331.63 125.558 331.63 125.524 331.647C125.491 331.664 125.442 331.647 125.408 331.664C125.375 331.681 125.375 331.681 125.342 331.698C125.309 331.715 125.276 331.731 125.276 331.731C125.243 331.748 125.21 331.765 125.177 331.782C125.144 331.798 125.144 331.798 125.111 331.815C125.077 331.832 125.044 331.849 125.011 331.866C124.978 331.882 124.978 331.882 124.945 331.899C124.912 331.916 124.912 331.916 124.879 331.933C124.846 331.95 124.829 331.999 124.796 332.016C124.763 332.033 124.763 332.033 124.747 332.083L124.714 332.1L124.681 332.116C124.648 332.133 124.631 332.183 124.615 332.233C124.615 332.233 124.582 332.25 124.599 332.283C124.549 332.349 124.533 332.399 124.483 332.466C124.467 332.516 124.434 332.615 124.418 332.665C124.418 332.665 124.435 332.698 124.402 332.715C124.402 332.798 124.386 332.848 124.386 332.931C124.386 332.931 124.403 332.964 124.37 332.981C124.37 332.981 124.37 332.981 124.387 333.014C124.387 333.014 124.387 333.014 124.404 333.047L127.999 443.675L128.016 443.708C128 443.758 128.017 443.791 128.033 443.824C128.017 443.874 128.034 443.907 128.017 443.957C128.034 443.99 128.018 444.04 128.035 444.073C128.051 444.106 128.035 444.156 128.052 444.189C128.069 444.222 128.085 444.255 128.102 444.288C128.119 444.321 128.136 444.354 128.153 444.387C128.169 444.42 128.186 444.453 128.22 444.519C128.236 444.552 128.253 444.585 128.27 444.619C128.287 444.652 128.337 444.668 128.353 444.701C128.37 444.734 128.42 444.75 128.437 444.783L128.454 444.816L128.503 444.833C128.52 444.866 128.553 444.849 128.57 444.882C128.62 444.898 128.67 444.915 128.687 444.948C128.687 444.948 128.687 444.948 128.736 444.964L128.786 444.98C128.786 444.98 128.819 444.963 128.836 444.996L128.886 445.013C128.936 445.029 128.986 445.045 129.036 445.062C129.086 445.078 129.119 445.061 129.168 445.077C129.202 445.06 129.218 445.094 129.251 445.077L129.285 445.06C129.334 445.076 129.401 445.043 129.451 445.059C129.484 445.042 129.533 445.058 129.533 445.058C129.6 445.025 129.683 445.024 129.782 444.974C129.881 444.924 129.981 444.873 130.063 444.79C130.096 444.773 130.096 444.773 130.112 444.723C130.162 444.657 130.244 444.573 130.294 444.506C130.294 444.506 130.327 444.49 130.31 444.457C130.31 444.457 130.31 444.457 130.343 444.44L198.511 357.233C198.511 357.233 198.511 357.233 198.544 357.216C198.578 357.199 198.594 357.149 198.61 357.1C198.627 357.05 198.66 357.033 198.676 356.983C198.692 356.933 198.725 356.916 198.742 356.867C198.758 356.817 198.774 356.767 198.791 356.717L198.807 356.667L198.823 356.617C198.84 356.567 198.856 356.518 198.839 356.485C198.856 356.435 198.839 356.402 198.855 356.352C198.871 356.302 198.855 356.269 198.838 356.236C198.821 356.203 198.837 356.153 198.821 356.12C198.804 356.087 198.82 356.037 198.803 356.004C198.787 355.971 198.77 355.938 198.786 355.888C198.769 355.855 198.753 355.822 198.736 355.789C198.769 355.772 198.752 355.739 198.736 355.706ZM127.164 334.058L165.601 328.696L130.3 436.397L127.164 334.058ZM168.061 329.526L195.902 356.519L132.761 437.227L168.061 329.526Z" fill="black"/>
</g>
<defs>
<clipPath id="clip0_12_2535">
<rect width="371.136" height="463.44" fill="white" transform="translate(-56 167.889) rotate(-26.8955)"/>
</clipPath>
</defs>
</svg>
